<svg width="60" height="52" viewBox="0 0 60 52" fill="none" xmlns="http://www.w3.org/2000/svg">
<path d="M42.6432 22.7917C42.3568 22.7624 42.1452 22.5053 42.1745 22.2156C42.2038 21.9291 42.4609 21.7175 42.7506 21.7468C43.3952 21.8152 44.0104 22.0138 44.5736 22.3523C44.847 22.5151 45.1042 22.7104 45.3483 22.9382C45.459 22.668 45.5957 22.4174 45.752 22.183C46.1003 21.6687 46.5527 21.2455 47.0866 20.9363C47.3372 20.7898 47.6595 20.8777 47.8027 21.1283C47.9492 21.379 47.8613 21.7013 47.6107 21.8445C47.2135 22.0723 46.8783 22.3881 46.6211 22.769C46.3704 23.1433 46.1914 23.5828 46.1035 24.0743C46.084 24.2143 46.0124 24.3445 45.8887 24.4324C45.6543 24.6016 45.3255 24.5463 45.1562 24.3119C44.8275 23.8497 44.4466 23.4981 44.0332 23.2507C43.6068 22.9936 43.138 22.8438 42.6432 22.7917ZM22.041 26.6296V44.0157H24.0592L26.4095 41.4311H25.1628V39.8523H29.0234L24.668 35.0248L25.8398 33.9701L28.4766 36.8901V36.7761H34.9316C35.2148 36.7761 35.4655 36.9259 35.6055 37.1505L37.513 39.849H41.097C41.3346 39.849 41.5495 39.9532 41.6927 40.1225L45.6185 44.0157H50V45.5945H10.2279V44.0157H20.8138V26.6296H10.6152C10.2767 26.6296 10 26.3562 10 26.0144C10 25.9949 10 25.9753 10.0033 25.9526C10.0293 22.8861 11.3086 20.116 13.3626 18.1075C15.3906 16.1316 18.1706 14.8914 21.2435 14.849C21.3021 14.8295 21.3672 14.8197 21.4323 14.8197C21.4974 14.8197 21.5625 14.8295 21.6243 14.849C24.681 14.9044 27.4414 16.1414 29.4596 18.1108C31.5267 20.1322 32.8092 22.9252 32.819 26.0144C32.819 26.3529 32.5456 26.6264 32.207 26.6264V26.6296H22.041ZM26.1914 44.019H43.3789L40.7715 41.4343H28.5417L26.1914 44.019ZM31.1491 39.8523H35.5794L34.5247 38.3582H29.8014L31.1491 39.8523ZM37.3177 16.5873C36.9824 16.6296 36.6764 16.3953 36.6309 16.06C36.5885 15.7247 36.8229 15.4187 37.1582 15.3731C38.2194 15.2332 39.2448 15.3601 40.1725 15.7735C40.7324 16.0242 41.25 16.3757 41.7155 16.838C41.9694 16.2683 42.3144 15.767 42.7376 15.3471C43.4375 14.6537 44.3392 14.1882 45.3678 14.0092C45.7031 13.9506 46.0189 14.1785 46.0775 14.5105C46.1361 14.8458 45.9082 15.1615 45.5762 15.2201C44.8014 15.3536 44.1243 15.7019 43.6068 16.2162C43.0924 16.724 42.7279 17.4044 42.5684 18.2084H42.5651C42.5358 18.3614 42.4479 18.5046 42.3079 18.599C42.028 18.7878 41.6471 18.7162 41.4583 18.4363C40.9635 17.7071 40.3548 17.1993 39.6745 16.8966C38.9616 16.571 38.1608 16.4766 37.3177 16.5873ZM28.6035 18.9897C27.7702 18.1759 26.7904 17.4988 25.7096 17.0072C26.1263 17.6095 26.4779 18.2963 26.7643 19.0548C27.4316 20.8158 27.7572 22.9805 27.7897 25.4024H31.5723C31.4095 22.9024 30.306 20.6531 28.6035 18.9897ZM23.2096 16.2325C22.8288 16.1674 22.4414 16.1218 22.0475 16.0958V25.4024H26.5658C26.5365 23.1303 26.2337 21.1121 25.6185 19.4877C25.0716 18.0391 24.2773 16.9161 23.2096 16.2325ZM20.8171 16.0925C20.4297 16.1153 20.0456 16.1576 19.6712 16.2195C18.5905 16.9063 17.7865 18.0391 17.2363 19.5072C16.6276 21.1251 16.3281 23.1401 16.2988 25.3992H20.8171V16.0925ZM17.1777 16.9779C16.071 17.476 15.0684 18.1596 14.2187 18.9929C12.5163 20.6563 11.4128 22.9057 11.25 25.4024H15.0781C15.1074 22.9936 15.4329 20.8354 16.0937 19.0776C16.3835 18.2963 16.7448 17.5899 17.1777 16.9779Z" fill="#449BFF"/>
</svg>
