<svg width="50" height="50" viewBox="0 0 50 50" fill="none" xmlns="http://www.w3.org/2000/svg">
<g clip-path="url(#clip0_162_5)">
<path d="M19.7507 7.73928C19.3552 7.88088 19.0964 8.3301 19.1648 8.75491C19.2136 9.02346 19.575 9.71682 19.8875 10.127C20.0242 10.3125 20.1707 10.503 20.2048 10.5469C20.2634 10.625 20.2439 10.6397 20.0388 10.7129C19.5994 10.8643 19.1062 10.7813 18.4275 10.4492C17.7488 10.1172 17.1335 9.4678 16.7234 8.6426C16.4695 8.13967 16.3816 8.02249 16.1472 7.9053C15.7371 7.69534 15.1609 7.88088 14.9656 8.28616C14.8093 8.59866 14.8484 8.96487 15.0779 9.44827C15.1853 9.67288 15.3904 10.0293 15.532 10.2393C15.8445 10.7129 16.6599 11.5283 17.1042 11.8115C17.2849 11.9287 17.4167 12.041 17.3972 12.0606C17.3777 12.0801 17.1921 12.2071 16.9919 12.3389C15.4392 13.3789 13.9939 14.8291 12.9197 16.4307C12.197 17.5049 11.6306 18.6573 11.2449 19.834C11.0447 20.4444 10.9958 20.5567 10.9128 20.5567C10.8591 20.5567 10.6541 20.6006 10.4587 20.6543C9.03296 21.0498 7.90991 22.2998 7.59741 23.8379C7.49487 24.3262 7.49487 25.2344 7.59741 25.7227C7.92944 27.3438 9.12085 28.6524 10.571 28.9844C10.7615 29.0283 10.9373 29.0674 10.9617 29.0772C10.991 29.0821 11.0984 29.3164 11.2009 29.5948C11.9041 31.5137 13.1882 33.5059 14.697 35.0098C16.8894 37.2071 19.6384 38.5987 22.6853 39.0625C23.5349 39.1944 25.2927 39.2432 26.157 39.1651C29.6824 38.8428 32.7048 37.4024 35.156 34.8828C35.947 34.0674 36.3425 33.584 36.9041 32.7393C37.6023 31.6895 38.1589 30.5811 38.5544 29.458C38.6765 29.1065 38.7107 29.0528 38.8132 29.0528C38.9988 29.0528 39.5017 28.9063 39.8337 28.7549C42.031 27.7588 42.9001 24.7559 41.6404 22.5196C41.3669 22.0362 40.6785 21.333 40.2097 21.0547C39.8386 20.835 39.2917 20.6299 38.95 20.5811L38.74 20.5469L38.6033 20.127C37.9197 18.0078 36.7185 16.0352 35.0876 14.3653C33.5105 12.749 32.0359 11.7578 30.1023 11.0108C28.3298 10.3272 26.7283 10.0537 24.3894 10.0342C23.1443 10.0244 22.8855 10.0098 22.656 9.93655C21.9431 9.71194 21.5427 9.36038 21.0593 8.53518C20.7273 7.97366 20.5564 7.79299 20.2732 7.71487C20.0437 7.65139 19.99 7.65627 19.7507 7.73928ZM25.9763 12.1338C26.7234 12.3047 27.5193 12.7783 27.9539 13.3203C28.7449 14.3018 28.8718 15.5323 28.3054 16.6992C28.1443 17.0313 28.0222 17.1973 27.6853 17.5342C27.2312 17.9932 26.8064 18.2373 26.2205 18.3936C25.8054 18.501 24.9851 18.501 24.5603 18.3887C23.408 18.0957 22.49 17.1778 22.1921 16.0156C22.0847 15.6055 22.0017 15.4737 21.7625 15.3125C21.3962 15.0781 21.0203 15.0977 20.698 15.3662C20.3269 15.6787 20.2732 16.128 20.5222 16.8457C21.0984 18.5205 22.4265 19.751 24.1697 20.2246C24.531 20.3223 24.6921 20.3369 25.4392 20.3321C26.2009 20.3321 26.3425 20.3174 26.7625 20.2051C27.9636 19.878 29.0037 19.1162 29.6824 18.0664C30.2 17.2608 30.4587 16.4453 30.5027 15.4785C30.532 14.7461 30.4294 14.1455 30.1609 13.5254C30.0681 13.3106 29.9998 13.1348 30.0095 13.1348C30.1169 13.1348 31.1521 13.6963 31.616 14.0039C33.4714 15.2393 35.0242 17.0117 36.0105 19.0186C36.406 19.8242 36.5964 20.3321 36.821 21.1865C37.0652 22.1094 37.2458 22.2803 38.0515 22.3682C38.6667 22.4365 38.95 22.5244 39.3064 22.7637C40.6736 23.6768 40.6345 25.9473 39.2332 26.8799C38.8816 27.1094 38.6765 27.1778 38.1052 27.2461C37.3093 27.3438 37.0798 27.4903 36.9382 28.0176C36.5378 29.4727 36.1277 30.3711 35.2732 31.6406C33.6521 34.0625 31.1521 35.9082 28.3591 36.7481C26.655 37.2559 24.2869 37.3535 22.3875 36.9873C19.5554 36.4405 16.7039 34.6289 14.8728 32.2119C14.0085 31.0694 13.3054 29.7461 12.9099 28.5303C12.783 28.1348 12.6316 27.7393 12.5681 27.6563C12.407 27.4414 12.197 27.3535 11.5916 27.2705C10.9324 27.1778 10.5515 27.0117 10.1609 26.6358C9.68237 26.1817 9.37964 25.4639 9.37476 24.7998C9.37476 24.4434 9.53589 23.8233 9.7019 23.5401C9.91675 23.1739 10.3367 22.7686 10.6785 22.5977C10.9226 22.4805 11.1033 22.4317 11.5476 22.3828C12.1628 22.3096 12.4314 22.2071 12.5925 21.9776C12.6462 21.8994 12.783 21.5088 12.8855 21.1133C13.1931 19.9707 13.4958 19.253 14.1013 18.2227C15.1365 16.4844 16.3523 15.1905 18.0271 14.0625C19.5847 13.0127 21.6892 12.2754 23.7546 12.0655C24.3796 11.9971 25.5369 12.0362 25.9763 12.1338Z" fill="black"/>
<path d="M18.6518 21.7627C18.0805 21.8555 17.4506 22.1973 16.9867 22.6563C16.5814 23.0567 16.4008 23.3301 16.225 23.8135C16.0346 24.3457 16.0981 24.7412 16.4398 25.0586C16.8109 25.4102 17.3871 25.3662 17.724 24.961C17.8022 24.8633 17.8803 24.7217 17.8998 24.6387C17.9779 24.2774 18.2563 23.9307 18.6029 23.7549C18.852 23.6231 19.4281 23.5987 19.7016 23.7012C20.0043 23.8184 20.2826 24.1162 20.4193 24.4678C20.6244 25.0098 20.9613 25.293 21.3861 25.293C21.6596 25.293 21.8695 25.1953 22.0551 24.9854C22.5043 24.4727 22.2309 23.4424 21.4398 22.6563C20.8148 22.0362 20.0482 21.7237 19.1938 21.7334C18.9643 21.7383 18.7201 21.753 18.6518 21.7627Z" fill="black"/>
<path d="M29.8096 21.8018C29.0918 21.9873 28.3838 22.4658 27.9492 23.0713C27.4072 23.8379 27.3096 24.541 27.6953 24.9805C27.9004 25.21 28.0713 25.293 28.3691 25.293C28.8232 25.293 29.1309 25.0537 29.3213 24.5654C29.5606 23.9307 29.9609 23.6328 30.5664 23.6328C31.167 23.6377 31.5088 23.8818 31.8115 24.5361C32.0264 24.9951 32.1582 25.1514 32.3877 25.2393C32.71 25.3613 33.1934 25.2588 33.4033 25.0195C33.7256 24.6484 33.7256 24.1602 33.4033 23.5059C33.0322 22.7588 32.3438 22.168 31.5088 21.8701C31.1279 21.7334 30.2246 21.6992 29.8096 21.8018Z" fill="black"/>
<path d="M20.874 28.9893C20.5176 29.1748 20.3613 29.419 20.3613 29.7852C20.3613 30.1172 20.4639 30.3174 20.8203 30.7032C22.2021 32.1827 24.4678 32.7784 26.5088 32.1973C27.8027 31.8262 29.1992 30.7764 29.3994 30.0196C29.585 29.3311 28.8232 28.6963 28.1494 28.9746C28.0566 29.0137 27.8174 29.1993 27.627 29.3799C27.1826 29.7998 26.9092 29.9903 26.4014 30.2246C25.4932 30.6495 24.4092 30.6788 23.4863 30.3077C23.0029 30.1075 22.6611 29.8829 22.2168 29.458C21.9824 29.2334 21.7139 29.0235 21.6162 28.9795C21.3867 28.8868 21.0596 28.8868 20.874 28.9893Z" fill="black"/>
</g>
<defs>
<clipPath id="clip0_162_5">
<rect width="50" height="50" fill="white"/>
</clipPath>
</defs>
</svg>
