<svg width="50" height="50" viewBox="0 0 50 50" fill="none" xmlns="http://www.w3.org/2000/svg">
<path d="M10.5371 6.0498C10.0342 6.24999 9.68262 6.57714 9.43848 7.07519L9.30176 7.34863V22.998V38.6475L9.45801 38.9795C9.74121 39.5801 10.2783 39.9756 10.9424 40.083C11.1523 40.1172 14.458 40.1367 20.918 40.1367H30.5762L30.9277 40.3955C32.9736 41.9287 35.6201 42.456 38.0859 41.8213C40.6201 41.1719 42.8027 39.2871 43.8184 36.8701C44.2334 35.8789 44.4238 35.0098 44.4678 33.8867C44.5117 32.7734 44.3848 31.8848 44.043 30.8545C43.2373 28.4277 41.3135 26.4941 38.8818 25.6641L38.335 25.4785L38.3203 19.4922C38.3057 13.7793 38.3008 13.4912 38.2129 13.2568C38.1348 13.042 37.7344 12.6221 34.7461 9.6289C32.2803 7.15331 31.3086 6.20605 31.1279 6.11327L30.8838 5.98144L20.8252 5.97167C11.167 5.96191 10.7568 5.96679 10.5371 6.0498ZM30.1367 10.0439L30.1514 12.7197L30.3076 13.0518C30.5225 13.5059 30.8887 13.8769 31.3428 14.1016L31.709 14.2822L34.2871 14.2969L36.8652 14.3115V19.751V25.1953L36.3135 25.166C34.2285 25.0439 32.0605 25.8105 30.3613 27.2656C29.0576 28.3789 28.0615 30.0976 27.6855 31.875C27.5537 32.4853 27.5 33.8623 27.583 34.5459C27.7441 35.9131 28.1787 37.1289 28.8965 38.208L29.1895 38.6475L20.21 38.6621C10.3174 38.6719 10.9912 38.6963 10.791 38.3691C10.6934 38.208 10.6934 38.1689 10.6934 23.0078C10.6934 9.06738 10.6982 7.79296 10.7715 7.67089C10.8154 7.59765 10.9082 7.49999 10.9814 7.45605C11.0986 7.3828 11.9141 7.37792 20.6152 7.37304H30.1221L30.1367 10.0439ZM35.8887 12.8564C35.8887 12.8809 35.0488 12.8906 34.0234 12.8809C32.2656 12.8662 32.1436 12.8613 31.9629 12.7685C31.8555 12.7148 31.7236 12.6074 31.6699 12.5342C31.5723 12.4023 31.5674 12.3291 31.5527 10.4346L31.543 8.47167L33.7158 10.6445C34.9121 11.8408 35.8887 12.8369 35.8887 12.8564ZM37.2217 26.7285C39.7559 27.1875 41.875 28.9795 42.6514 31.3135C42.9443 32.1875 42.9932 32.5342 42.9883 33.5937C42.9883 34.4482 42.9736 34.6045 42.8613 35.0928C42.2949 37.4951 40.5811 39.4141 38.2812 40.2246C36.1865 40.9619 33.7598 40.5957 31.8848 39.2676C31.4795 38.9795 30.708 38.208 30.3857 37.7734C29.458 36.5185 29.0039 35.1074 29.0039 33.4961C29.0039 32.4072 29.209 31.499 29.668 30.542C30.6787 28.4277 32.749 26.958 35.1367 26.6601C35.6104 26.6016 36.7139 26.6357 37.2217 26.7285Z" fill="black"/>
<path d="M14.3701 16.9922C14.1699 17.1143 14.0625 17.3242 14.0625 17.5879C14.0625 17.8711 14.209 18.0957 14.4678 18.2129C14.668 18.3057 14.8682 18.3105 21.3379 18.3105C27.8076 18.3105 28.0078 18.3057 28.208 18.2129C28.7061 17.9883 28.7646 17.2705 28.3057 16.9922C28.1543 16.8945 28.0078 16.8945 21.3379 16.8945C14.668 16.8945 14.5215 16.8945 14.3701 16.9922Z" fill="black"/>
<path d="M14.3705 21.2891C13.9505 21.543 13.9603 22.2168 14.39 22.4951C14.5169 22.5781 14.9369 22.583 23.6576 22.583C32.3539 22.583 32.7982 22.5781 32.9496 22.4951C33.3988 22.251 33.4232 21.5479 32.9935 21.2891C32.8421 21.1914 32.6761 21.1914 23.682 21.1914C14.6878 21.1914 14.5218 21.1914 14.3705 21.2891Z" fill="black"/>
<path d="M14.5316 25.4883C14.2143 25.586 13.9701 25.9912 14.0434 26.3037C14.0971 26.5283 14.2924 26.7432 14.5121 26.8262C14.7025 26.8994 15.2934 26.9043 20.6889 26.8946L26.6557 26.8799L26.7924 26.7774C27.2514 26.4356 27.2562 25.8301 26.8021 25.5615C26.641 25.4639 26.5385 25.4639 20.6547 25.4541C17.3539 25.4492 14.6098 25.4639 14.5316 25.4883Z" fill="black"/>
<path d="M14.5462 29.7803C14.307 29.8535 14.2093 29.9365 14.1068 30.1367C13.9359 30.4736 14.0335 30.8203 14.3753 31.0742C14.5072 31.1768 14.5365 31.1768 19.5707 31.1768H24.6341L24.8099 31.0645C25.2494 30.7959 25.2542 30.1318 24.8197 29.8486C24.6927 29.7656 24.4144 29.7607 19.6781 29.751C16.9242 29.7461 14.6146 29.7607 14.5462 29.7803Z" fill="black"/>
<path d="M39.5459 29.7851C39.4483 29.8388 38.3155 30.9472 37.0313 32.2461C35.7422 33.5498 34.6778 34.6191 34.6631 34.6191C34.6436 34.6191 34.1407 34.1259 33.545 33.5254C32.9444 32.9199 32.3829 32.3926 32.2852 32.3437C31.6748 32.0556 31.045 32.8076 31.4014 33.3984C31.46 33.4912 32.1241 34.1894 32.876 34.9511C33.9942 36.0742 34.2823 36.3379 34.4336 36.3818C34.8389 36.4892 34.7608 36.5527 37.7295 33.584C39.2383 32.0703 40.4981 30.7715 40.5225 30.6982C40.6592 30.332 40.5176 29.9414 40.1856 29.7754C39.9659 29.6631 39.7657 29.6679 39.5459 29.7851Z" fill="black"/>
</svg>
