<svg width="50" height="50" viewBox="0 0 50 50" fill="none" xmlns="http://www.w3.org/2000/svg">
<path d="M23.091 4.71191C21.4992 4.87793 20.1515 5.15625 18.7794 5.60059C14.4142 7.0166 10.8009 9.75098 8.26674 13.5498C6.95327 15.5225 5.96206 17.7832 5.42007 20.0439C5.0685 21.5039 4.93178 22.666 4.8976 24.4629C4.86831 26.0547 4.9269 26.9531 5.15639 28.335C5.82534 32.4414 7.9396 36.4307 11.0011 39.3848C13.5695 41.8603 16.8312 43.6865 20.2394 44.5557C25.7814 45.9668 31.6505 44.8584 36.4992 41.4844C42.0753 37.6025 45.3371 31.1328 45.1515 24.3164C45.0636 21.1377 44.341 18.291 42.9201 15.5469C41.1867 12.1875 38.5206 9.3457 35.3224 7.44141C32.9689 6.04004 30.4445 5.17578 27.5392 4.78027C26.548 4.64844 24.0968 4.60938 23.091 4.71191ZM26.2697 7.32422C28.6427 7.50488 30.7326 8.06641 32.7882 9.07715C35.7912 10.5566 38.2716 12.8418 40.0001 15.7227C41.3234 17.9248 42.0998 20.2393 42.4074 22.876C42.5148 23.8281 42.5197 25.8691 42.4074 26.7773C41.9972 30.2148 40.7228 33.3008 38.6232 35.9375C38.4132 36.2012 38.213 36.4307 38.1837 36.4502C38.1447 36.4746 33.7013 32.0654 25.7228 24.0918L13.3253 11.6943L13.5597 11.4844C13.6867 11.3672 14.048 11.0791 14.3556 10.8447C17.1632 8.69629 20.0685 7.62207 23.9015 7.30957C24.3654 7.27051 25.6642 7.28027 26.2697 7.32422ZM23.9699 25.8984L36.338 38.2666L35.8107 38.6914C32.1095 41.6699 27.1583 42.998 22.4464 42.2852C19.4386 41.8262 16.5578 40.5566 14.0871 38.5937C13.3595 38.0127 11.9337 36.582 11.3478 35.8398C9.1603 33.0811 7.881 29.8877 7.56362 26.4062C7.49038 25.5908 7.53432 23.4228 7.63686 22.6074C7.97378 20.0244 8.8185 17.6416 10.1564 15.498C10.6496 14.7168 11.4943 13.5352 11.5724 13.5303C11.5871 13.5254 17.1632 19.0918 23.9699 25.8984Z" fill="black"/>
<path d="M23.3936 10.0391C22.3584 10.3174 21.6309 11.2647 21.6309 12.3438C21.6309 13.003 21.9678 13.7451 22.4609 14.1699L22.6904 14.3653L21.8213 16.2647L20.957 18.1641L21.5918 18.7744C21.9434 19.1065 22.2412 19.375 22.2607 19.3653C22.2754 19.3555 22.6855 18.4766 23.1689 17.4121C23.6523 16.3526 24.0576 15.4834 24.0723 15.4785C24.0918 15.4785 25.1465 17.4903 25.2783 17.7735C25.2881 17.7881 24.6631 18.2129 23.9014 18.7158C23.1348 19.2237 22.5098 19.6436 22.5098 19.6485C22.5098 19.6533 23.0176 20.166 23.6377 20.7862L24.7705 21.9092L25.708 21.3086C26.2256 20.9766 26.6699 20.7032 26.6992 20.7032C26.7285 20.7032 26.7578 20.7324 26.7676 20.7617C26.7773 20.7959 27.0654 21.3721 27.4121 22.0362C27.7539 22.7051 28.0176 23.2666 27.998 23.291C27.9736 23.3106 27.71 23.4912 27.4072 23.6914L26.8604 24.0528L28.0273 25.2198L29.1943 26.3867L29.3164 26.2744L29.4336 26.1621L29.7021 26.6699C29.9756 27.1729 29.9805 27.1778 31.6504 28.833C32.5732 29.7461 33.3984 30.5567 33.4863 30.6397C33.6768 30.8106 32.6123 28.6328 28.1885 19.7705L25.4443 14.2725L25.6836 14.0381C25.9668 13.7598 26.2354 13.2715 26.3184 12.8858C26.3525 12.7295 26.3721 12.4219 26.3574 12.1729C26.3428 11.8018 26.3135 11.6846 26.167 11.3721C25.6592 10.3076 24.4873 9.74612 23.3936 10.0391Z" fill="black"/>
<path d="M33.6183 14.79C33.379 14.9414 31.2599 17.1045 31.2013 17.251C31.0157 17.7637 31.3917 18.3105 31.9288 18.3105C32.0411 18.3105 32.1925 18.2812 32.2657 18.2422C32.339 18.2031 32.9298 17.6367 33.5792 16.9824C34.8341 15.7178 34.8732 15.6641 34.7902 15.2881C34.7511 15.1025 34.5607 14.8633 34.3702 14.7705C34.1749 14.668 33.7941 14.6777 33.6183 14.79Z" fill="black"/>
<path d="M35.3028 23.916C35.21 23.9599 35.083 24.0722 35.0244 24.165C34.8242 24.458 34.9073 24.9707 35.1856 25.1904C35.2442 25.2392 35.8545 25.4883 36.543 25.7471C37.8516 26.2451 38.0908 26.2988 38.3692 26.1523C38.6914 25.9814 38.8574 25.6299 38.7696 25.2978C38.667 24.917 38.5157 24.8242 37.1436 24.3017C35.8057 23.7939 35.6153 23.7549 35.3028 23.916Z" fill="black"/>
<path d="M17.9736 25.1855C17.29 26.709 16.1426 29.248 15.4297 30.8349C13.8086 34.4189 13.8525 34.3164 13.8769 34.6777C13.9062 35.0439 14.0722 35.2588 14.5312 35.5078C15.5908 36.084 18.4472 36.7236 21.1181 36.9824C24.6826 37.334 29.1797 37.1094 31.8066 36.4453C32.4804 36.2744 32.959 36.1279 32.959 36.0937C32.959 36.0742 32.6611 35.7617 32.2949 35.3955L31.6308 34.7314L31.4502 34.7705C31.0254 34.873 29.541 35.1074 28.7353 35.2002C27.8906 35.3027 26.748 35.3955 26.7187 35.3711C26.709 35.3662 27.4414 34.8633 28.3447 34.248L29.9902 33.1396L28.8232 31.9726L27.6562 30.8056L24.3847 32.9639C22.5879 34.1504 21.0693 35.1416 21.0107 35.1709C20.8935 35.2246 20.5322 35.1855 19.2627 34.9805C18.5498 34.8633 17.0996 34.5556 16.8799 34.4775C16.7871 34.4433 16.8408 34.3945 17.334 34.0722C17.6416 33.8721 19.0039 32.9834 20.3613 32.0996C21.7187 31.2158 23.4375 30.0976 24.1797 29.6142C24.9267 29.1308 25.5371 28.7256 25.5371 28.7109C25.5371 28.6963 25.0146 28.164 24.3799 27.5293L23.2178 26.3769L22.1924 27.0508C19.9365 28.5351 17.6513 30.0146 17.6367 30.0049C17.6269 29.9951 18.7451 27.5293 19.6533 25.5615L19.8095 25.2197L20.4785 24.7803C20.8398 24.5361 21.1426 24.3213 21.1426 24.3017C21.1426 24.2529 19.2822 22.4121 19.2383 22.4121C19.2236 22.4121 18.6523 23.6621 17.9736 25.1855Z" fill="black"/>
<path d="M11.8994 23.7842C11.0547 23.9746 10.5908 24.1016 10.4932 24.1699C10.2979 24.3115 10.2051 24.5117 10.2051 24.79C10.2051 25.2344 10.5127 25.5371 10.9668 25.5371C11.25 25.5371 13.6182 25.0293 13.8232 24.9268C13.9893 24.8389 14.1406 24.6533 14.209 24.4385C14.3066 24.1357 14.1211 23.7158 13.8184 23.5596C13.584 23.4375 13.2227 23.4814 11.8994 23.7842Z" fill="black"/>
</svg>
