<svg width="50" height="50" viewBox="0 0 50 50" fill="none" xmlns="http://www.w3.org/2000/svg">
<path d="M23.291 4.65422C21.6553 4.81535 19.7705 5.22551 18.457 5.7089C16.8848 6.28019 15.1172 7.18351 13.9111 8.02824C9.74609 10.9482 6.92871 15.2548 5.93262 20.2304C5.63477 21.7001 5.5957 22.1542 5.5957 23.9413C5.5957 25.6405 5.64941 26.2851 5.91309 27.7011C6.91895 33.0917 10.3711 37.9599 15.2051 40.8066C17.6123 42.2226 20.6348 43.1357 23.6279 43.3554C25.2539 43.4726 27.2412 43.3603 28.833 43.0575C33.877 42.1005 38.7744 38.7069 41.5869 34.2196C45.7129 27.6474 45.4541 19.1464 40.9473 12.8085C38.9746 10.0351 36.2793 7.78898 33.2568 6.41203C31.0742 5.41594 29.1992 4.89836 26.8897 4.65422C26.0303 4.56633 24.1797 4.56633 23.291 4.65422ZM26.9531 6.8466C28.6719 7.05656 30.4297 7.50578 31.7822 8.08195C36.6064 10.1425 40.332 14.3124 41.6699 19.1562C42.2168 21.1484 42.4756 23.414 42.3438 25.1278C42.1631 27.5058 41.6357 29.4833 40.6494 31.5097C40.0293 32.7841 39.3408 33.8534 38.3154 35.1376L37.8272 35.7528L37.749 35.6357C37.5586 35.3476 36.9141 34.6933 29.6191 27.3739C25.376 23.1161 20.4688 18.1698 18.7158 16.3876C15.3125 12.9257 13.7939 11.412 13.5303 11.2118L13.3691 11.0898L13.9453 10.6552C15.7227 9.33683 17.0117 8.58488 18.5303 7.98429C20.2051 7.32512 21.5918 7.0175 24.0479 6.75871C24.4434 6.71965 26.3623 6.77336 26.9531 6.8466ZM15.5762 16.2362C17.2803 17.9501 22.334 23.0087 26.8066 27.4814C31.2793 31.954 35.2588 35.953 35.6494 36.373L36.3672 37.1298L36.0889 37.3495C34.1846 38.873 31.7041 40.1425 29.5508 40.6943C28.0615 41.0751 26.7676 41.2265 25 41.2265C22.3779 41.2216 20.249 40.787 18.0176 39.8007C15.6787 38.7655 14.126 37.6669 12.3193 35.7675C10.1758 33.5214 8.66699 30.5331 8.03711 27.3105C7.77344 25.9677 7.73926 25.5966 7.73926 24.039C7.74414 22.1689 7.85156 21.2216 8.25684 19.5956C8.88184 17.1005 9.81445 15.2743 11.5967 13.0673L11.9336 12.6474L12.207 12.8818C12.3535 13.0136 13.8721 14.5224 15.5762 16.2362Z" fill="black"/>
<path d="M20.2539 12.7393C19.6826 12.9248 19.2041 13.3008 18.8428 13.8574C18.7158 14.0527 18.5742 14.3213 18.5303 14.4531L18.4473 14.6973L20.9277 17.1582C22.2949 18.5156 23.418 19.6191 23.4229 19.6094C23.4326 19.5996 23.5254 19.3603 23.6377 19.0674C23.9502 18.2373 24.0283 17.876 24.0576 17.1387C24.0869 16.3623 24.0137 15.874 23.7549 15.1465C23.3398 13.9941 22.4902 13.0566 21.5625 12.7344C21.2305 12.6221 20.6201 12.6221 20.2539 12.7393Z" fill="black"/>
<path d="M28.5641 12.6806C28.2662 12.7343 27.7194 13.0517 27.3824 13.3691C26.8112 13.9062 26.4401 14.5019 26.2057 15.2636C25.9713 16.0058 25.9518 16.1474 25.9567 17.1142C25.9615 18.1836 26.0299 18.5351 26.3668 19.2187C26.694 19.8828 27.1481 20.3076 27.8072 20.5566C28.2028 20.7031 28.8424 20.708 29.3014 20.5615C30.3951 20.2148 31.3815 18.9258 31.7233 17.4072C31.8356 16.8994 31.8356 15.8056 31.7184 15.3076C31.401 13.9453 30.7125 13.0273 29.7799 12.7392C29.4967 12.6513 28.8961 12.622 28.5641 12.6806Z" fill="black"/>
<path d="M34.7167 18.0713C34.1406 18.169 33.4228 18.6133 32.8271 19.2578C31.8408 20.3174 31.2597 22.0996 31.5136 23.291C31.6699 24.0283 32.1289 24.7266 32.6562 25.0342C33.3349 25.4346 34.3164 25.4492 35.0878 25.0733C35.8447 24.7022 36.6552 23.8135 37.0898 22.8809C37.3437 22.3242 37.456 21.8408 37.4853 21.167C37.5146 20.4248 37.4316 20.0049 37.1337 19.3994C36.7333 18.584 36.2158 18.1738 35.4736 18.0664C35.0878 18.0127 35.083 18.0127 34.7167 18.0713Z" fill="black"/>
<path d="M29.7119 26.084C32.2656 28.6474 34.3652 30.747 34.3896 30.7519C34.4531 30.7666 34.4238 30.0049 34.3506 29.7119C34.1748 29.0381 33.667 28.2031 33.0371 27.5635C32.8223 27.3437 32.2559 26.875 31.7822 26.5234C30.7324 25.7422 30.2734 25.2734 29.8389 24.5312C29.4092 23.8037 29.0479 23.3447 28.5254 22.8467C27.5928 21.958 26.6846 21.5381 25.5225 21.4551L25.0732 21.4258L29.7119 26.084Z" fill="black"/>
<path d="M13.9595 18.2715C13.3003 18.5986 12.7974 19.3213 12.6216 20.1758C12.524 20.6641 12.5289 21.5332 12.6265 22.0117C12.9976 23.833 14.6285 25.3955 16.1519 25.3906C16.9673 25.3906 17.729 24.9121 18.105 24.1699C18.3736 23.6279 18.4712 23.1299 18.4468 22.417C18.4224 21.7773 18.3931 21.6455 18.2857 21.6211C18.2466 21.6113 17.8023 21.1767 17.2994 20.6494C16.7964 20.1221 16.0152 19.3359 15.566 18.9014L14.7457 18.1152H14.5113C14.3404 18.1152 14.1841 18.1592 13.9595 18.2715Z" fill="black"/>
<path d="M20.3857 24.3017C20.0293 24.9902 19.458 25.5615 18.1885 26.5136C17.1484 27.2998 16.9092 27.5048 16.543 27.9736C16.2061 28.3935 15.7715 29.2529 15.6152 29.8095C15.5225 30.1269 15.5029 30.3222 15.5029 30.8593C15.5029 31.5869 15.5957 32.0507 15.8643 32.6416C16.4697 33.9697 17.7783 34.8242 19.3848 34.9414C20.0098 34.9902 20.4004 34.9023 21.8018 34.3994C23.2471 33.8818 24.4922 33.7353 25.8643 33.9111C26.6406 34.0136 27.2021 34.1406 28.2861 34.4531C28.7939 34.5996 29.3945 34.7509 29.624 34.79C30.0537 34.8632 30.9424 34.8828 31.2549 34.8242L31.4307 34.79L26.0156 29.4189C23.0371 26.4648 20.5859 24.0429 20.5664 24.0381C20.5469 24.0283 20.4688 24.1504 20.3857 24.3017Z" fill="black"/>
</svg>
