<svg width="50" height="50" viewBox="0 0 50 50" fill="none" xmlns="http://www.w3.org/2000/svg">
<path d="M23.511 5.90818C19.4046 6.2451 15.3909 7.91014 12.3489 10.5322C11.7093 11.084 10.5911 12.2363 10.0979 12.8418C8.07157 15.3564 6.69462 18.3203 6.12821 21.3965C5.90848 22.6074 5.84989 23.2178 5.82548 24.6094C5.78153 26.8359 6.01591 28.5742 6.61161 30.542C8.65262 37.2803 14.5462 42.539 21.5042 43.8232C22.7591 44.0527 23.4622 44.1113 24.9759 44.1113C27.0852 44.1162 28.7063 43.8965 30.5569 43.3545C34.595 42.1777 38.2474 39.5605 40.7718 36.0303C42.5833 33.501 43.7454 30.5078 44.1702 27.2705C44.2727 26.4844 44.3118 24.4433 44.2434 23.5596C43.9163 19.4873 42.5638 16.0742 40.0198 12.8906C39.385 12.0996 37.9837 10.6982 37.2073 10.0781C34.3606 7.81248 31.011 6.43553 27.222 5.97654C26.47 5.88865 24.2825 5.84471 23.511 5.90818ZM27.0511 8.32518C30.9622 8.79393 34.429 10.4492 37.1097 13.1347C39.761 15.7861 41.4261 19.2041 41.929 23.0224C42.0462 23.916 42.0462 25.8984 41.9241 26.831C41.6165 29.2773 40.9524 31.2646 39.7073 33.4717C39.3265 34.1504 38.4915 35.3418 37.8079 36.1816C37.7981 36.1914 37.7688 36.1719 37.7493 36.1377C37.7249 36.1035 32.3636 30.7275 25.8255 24.1894L13.9456 12.3047L14.0677 12.1777C14.2288 12.0068 15.1614 11.3086 15.7132 10.9424C17.9056 9.5117 20.6399 8.55955 23.2913 8.30564C23.5989 8.27635 23.9407 8.24217 24.0481 8.2324C24.4681 8.18846 26.4261 8.25193 27.0511 8.32518ZM35.8597 37.9736C35.4446 38.3252 34.4729 39.0088 33.8675 39.3701C31.8118 40.6103 29.5657 41.3769 27.0999 41.6846C26.1233 41.8066 23.9261 41.8017 23.0227 41.6797C20.0735 41.2842 17.4612 40.2734 15.1858 38.6572C13.6282 37.5439 12.0022 35.8935 10.928 34.3262C9.81473 32.7051 8.96024 30.7617 8.50126 28.8086C7.31473 23.7793 8.60868 18.3203 11.9339 14.3164L12.2317 13.9599L24.1409 25.8887L36.0501 37.8125L35.8597 37.9736Z" fill="black"/>
<path d="M25.2929 11.4843C24.9121 11.6797 24.7949 11.8945 24.6337 12.7002C24.458 13.5498 24.4335 14.4531 24.5752 14.9902C24.8925 16.2011 25.8544 17.1484 27.1289 17.5049C27.3388 17.5634 27.7539 17.5976 28.6377 17.6269C30.3076 17.6758 30.7275 17.7734 31.455 18.2666C32.0849 18.6963 32.5146 19.1943 32.832 19.8779C33.1005 20.4492 33.208 20.9277 33.247 21.7383C33.2812 22.4023 33.291 22.4658 33.413 22.6513C33.7744 23.1982 34.4726 23.3008 34.9462 22.8857C35.2392 22.6269 35.3027 22.4267 35.3027 21.7334C35.3027 20.5859 35.1171 19.7607 34.6435 18.8574C34.2871 18.1689 33.9062 17.6562 33.3691 17.1386C32.1923 16.0009 30.9375 15.5273 29.1015 15.5273C27.7929 15.5273 27.2705 15.4052 26.9091 15.0146C26.6162 14.6972 26.5478 14.5019 26.5429 13.9892C26.5429 13.6572 26.5771 13.4326 26.6748 13.081C26.8408 12.4853 26.8408 12.2949 26.6748 11.958C26.4843 11.5869 26.2207 11.4111 25.8154 11.3867C25.5712 11.372 25.4687 11.3916 25.2929 11.4843Z" fill="black"/>
<path d="M28.0029 24.7559L28.7354 25.4883H30.9912H33.252V26.7578V28.0273L33.0225 28.0322C32.8906 28.0371 32.417 28.0371 31.958 28.0322L31.1279 28.0225L31.9092 28.8037L32.6904 29.5898H33.4619C34.0576 29.5898 34.2676 29.5752 34.375 29.5166C34.668 29.3652 34.668 29.3848 34.668 26.7969C34.668 24.5459 34.6631 24.4336 34.5703 24.2822C34.5068 24.1797 34.4189 24.1113 34.292 24.0771C34.1699 24.043 32.9395 24.0234 30.6885 24.0234H27.2705L28.0029 24.7559Z" fill="black"/>
<path d="M36.0842 24.1113C35.7521 24.2725 35.757 24.2432 35.7717 26.792C35.7814 28.0469 35.801 29.1357 35.8156 29.2041C35.8303 29.2773 35.8986 29.3848 35.967 29.4482C36.0842 29.5605 36.1281 29.5654 36.8801 29.5801C37.7345 29.5947 37.8273 29.5752 38.0031 29.3359C38.0959 29.209 38.1008 29.1357 38.091 26.8262C38.0812 24.1943 38.0812 24.2236 37.7687 24.0918C37.5099 23.9844 36.3088 23.9941 36.0842 24.1113Z" fill="black"/>
<path d="M12.0808 24.0771C11.9978 24.1016 11.8904 24.165 11.8366 24.2236C11.7488 24.3213 11.7439 24.458 11.7048 26.6797C11.6853 27.9688 11.6804 29.0967 11.695 29.1797C11.7097 29.2627 11.778 29.3848 11.8464 29.4482L11.9734 29.5654L19.278 29.5801L26.5876 29.5898L25.8064 28.8086L25.0251 28.0273H22.696H20.362V26.7578V25.4883L21.363 25.4785L22.3591 25.4639L21.6462 24.7412L20.9333 24.0234L16.5827 24.0283C14.1853 24.0283 12.1638 24.0527 12.0808 24.0771Z" fill="black"/>
</svg>
