<svg width="60" height="60" viewBox="0 0 60 60" fill="none" xmlns="http://www.w3.org/2000/svg">
<path d="M10.9981 12.8965C10.2539 13.084 9.55079 13.5234 9.07618 14.0977C8.81837 14.4082 8.39063 15.1348 8.34962 15.3398C8.3379 15.3926 8.28516 15.5977 8.23829 15.791C8.15626 16.0957 8.14454 16.9102 8.14454 22.793C8.14454 30.0996 8.13868 29.8945 8.50196 30.6328C8.87696 31.3945 9.47462 31.8457 10.459 32.1035C10.6231 32.1504 16.5938 32.168 29.9649 32.168C47.1504 32.168 49.2715 32.1563 49.582 32.0801C50.6836 31.793 51.4395 31.0605 51.7324 30C51.8555 29.5723 51.8555 29.4551 51.8555 22.7813V15.9961L51.7149 15.5098C51.4688 14.6719 50.9941 13.998 50.2969 13.5C49.9043 13.2188 49.1953 12.9199 48.7852 12.8613C48.6504 12.8379 40.1777 12.8203 29.9531 12.8145C13.1426 12.8027 11.332 12.8145 10.9981 12.8965ZM48.8086 15.0293C48.9844 15.1113 49.2305 15.2871 49.3477 15.4219C49.7695 15.8906 49.7461 15.457 49.7461 22.7695C49.7461 30.0586 49.7695 29.6074 49.3535 29.9238L49.1426 30.0879H30H10.8574L10.6465 29.9238C10.2305 29.6074 10.2539 30.0527 10.2539 22.7988C10.2539 18.5273 10.2773 16.1836 10.3125 16.043C10.4297 15.627 10.7227 15.2813 11.127 15.0703L11.502 14.8828H29.9941H48.4863L48.8086 15.0293Z" fill="black"/>
<path d="M44.9116 21.9082C44.4722 22.0137 44.1616 22.2891 44.0269 22.6934C43.7574 23.502 44.2847 24.2578 45.1402 24.2988C45.6499 24.3281 46.0191 24.1172 46.2476 23.6777C46.5113 23.1504 46.4292 22.6406 46.0249 22.2305C45.7085 21.9199 45.3335 21.8086 44.9116 21.9082Z" fill="black"/>
<path d="M14.5487 24.2578C14.2323 24.334 13.9862 24.5156 13.8456 24.7852C13.7108 25.0371 13.705 25.0898 13.7284 25.957C13.7401 26.4551 13.7635 26.9238 13.787 26.9941C13.8397 27.2051 14.0155 27.4043 14.2675 27.5508L14.5018 27.6855H27.5682H40.6346L40.9159 27.5215C41.3964 27.2402 41.4257 27.1406 41.4257 25.9688C41.4257 24.8555 41.4022 24.7441 41.0741 24.4746C40.9745 24.3867 40.7987 24.293 40.6757 24.2578C40.4237 24.1875 14.8475 24.1816 14.5487 24.2578Z" fill="black"/>
<path d="M22.5823 34.1894C22.4769 34.2363 22.3128 34.3711 22.2132 34.4941C21.9495 34.8164 21.9612 35.2383 22.2425 35.625C22.2776 35.6719 22.3948 35.918 22.4944 36.1699C22.6937 36.6562 22.7405 37.1484 22.6468 37.7344C22.5999 38.0332 22.178 38.9648 22.0901 38.9648C22.055 38.9648 22.0315 38.9941 22.0315 39.0351C22.0315 39.0703 21.9729 39.1816 21.8968 39.2812C21.762 39.4629 21.3108 40.3711 21.3577 40.3711C21.3694 40.3711 21.3401 40.4824 21.2933 40.6172C21.0062 41.4375 20.9417 42.6562 21.1526 43.5176C21.2171 43.7812 21.2757 44.0566 21.2933 44.1328C21.3226 44.2734 21.5452 44.8125 21.7503 45.2051C21.9026 45.5097 22.6761 46.5644 22.8929 46.7695C22.9808 46.8515 23.1683 46.9687 23.303 47.0215C23.5315 47.1152 23.5726 47.1152 23.8362 47.0273C24.5276 46.793 24.721 46.043 24.2229 45.5215C23.7659 45.041 23.0687 43.8398 22.9983 43.418C22.9808 43.3066 22.9397 43.1191 22.9104 43.0078C22.805 42.6328 22.846 41.7656 22.9925 41.1035C23.0394 40.8691 23.3089 40.3359 23.4905 40.1133C23.5901 39.9902 23.6722 39.8613 23.6722 39.8379C23.6722 39.8086 23.7483 39.6621 23.8421 39.5097C24.0589 39.1582 24.3108 38.4902 24.3636 38.1445C24.387 37.998 24.4046 37.5 24.3987 37.0312C24.3987 36.334 24.3753 36.1113 24.2698 35.8008C23.9886 34.9277 23.6839 34.4472 23.2972 34.248C22.969 34.084 22.846 34.0722 22.5823 34.1894Z" fill="black"/>
<path d="M28.9626 34.2246C28.6228 34.3945 28.4529 34.6758 28.4704 35.0625C28.4763 35.2559 28.5173 35.4199 28.5994 35.5254C28.8513 35.8653 29.0681 36.5156 29.1033 37.0195C29.1326 37.4414 29.115 37.5645 28.9744 38.0039C28.8689 38.3203 28.7165 38.6309 28.5583 38.8477C28.2654 39.2461 27.8318 40.0313 27.7673 40.2832C27.7439 40.377 27.6619 40.6582 27.5915 40.8985C27.4978 41.2266 27.4626 41.5195 27.4568 42.041C27.4451 42.8672 27.4919 43.2949 27.6619 43.8574C27.7322 44.0801 27.7908 44.3086 27.8025 44.3613C27.8376 44.5313 28.3005 45.457 28.3884 45.5274C28.4353 45.5684 28.4763 45.627 28.4763 45.6563C28.4763 45.7559 29.1677 46.6231 29.3962 46.8106C29.7009 47.0625 29.9353 47.1328 30.2283 47.0508C30.7087 46.9219 30.9783 46.5293 30.9255 46.0313C30.9021 45.832 30.8025 45.6738 30.3923 45.1582C29.8826 44.5313 29.5017 43.8809 29.4431 43.541C29.4255 43.4473 29.3845 43.2891 29.3494 43.2012C29.3142 43.1133 29.2732 42.8086 29.2556 42.5332C29.2029 41.6953 29.4372 40.6992 29.8005 40.2188C29.9119 40.0781 29.9997 39.9375 29.9997 39.9082C29.9997 39.8789 30.0232 39.8438 30.0466 39.832C30.1287 39.8028 30.6267 38.7363 30.738 38.3496C30.949 37.6699 30.8376 35.7715 30.5798 35.4785C30.5505 35.4492 30.5271 35.3789 30.5271 35.3262C30.5271 35.2735 30.3982 35.0332 30.2458 34.7988C30.0408 34.4824 29.8943 34.3301 29.7126 34.2305C29.4021 34.0723 29.2732 34.0664 28.9626 34.2246Z" fill="black"/>
<path d="M35.4609 34.1777C35.2207 34.2539 34.9219 34.582 34.916 34.793C34.8926 35.168 34.9395 35.4258 35.0449 35.543C35.2793 35.8008 35.5664 36.7441 35.5664 37.2773C35.5664 37.6641 35.2441 38.5488 34.9512 38.9648C34.582 39.4805 34.3652 39.9258 34.1426 40.5996C33.9609 41.1504 33.9551 41.1855 33.9551 42.2461C33.9551 43.2656 33.9668 43.3652 34.125 43.916C34.3242 44.6016 34.8633 45.7207 35.0977 45.9375C35.1152 45.9551 35.2266 46.1016 35.3496 46.2656C35.8184 46.9219 36.2578 47.1797 36.668 47.0449C37.002 46.9395 37.1836 46.7813 37.2949 46.5117C37.4355 46.1484 37.3711 45.8262 37.0898 45.498C36.6094 44.9414 36.0117 43.998 35.9531 43.6934C35.9355 43.623 35.877 43.418 35.8242 43.2422C35.748 43.0078 35.7188 42.7324 35.7188 42.2168C35.7188 41.6133 35.7422 41.4434 35.877 41.0215C35.9648 40.752 36.0996 40.4531 36.1816 40.3652C36.4395 40.0488 36.9141 39.1465 37.0957 38.6016C37.4238 37.6406 37.3887 36.4746 37.0195 35.4902C36.7617 34.8105 36.4453 34.3652 36.123 34.2188C35.8418 34.0898 35.748 34.084 35.4609 34.1777Z" fill="black"/>
</svg>
