<svg width="60" height="60" viewBox="0 0 60 60" fill="none" xmlns="http://www.w3.org/2000/svg">
<path d="M38.4961 10.0547C38.0859 10.084 36.8906 10.2246 35.8301 10.3711C31.7695 10.9336 30.3809 11.1211 27.6562 11.4844C25.9336 11.7129 23.1504 12.082 21.4746 12.3047C19.7988 12.5273 17.9531 12.7617 17.373 12.832L16.3184 12.9609L15.4102 12.668C14.9121 12.5098 13.2656 11.9766 11.748 11.4844C9.51562 10.7637 8.95312 10.5996 8.77148 10.623C8.51367 10.6582 8.18555 10.8984 7.98633 11.1914L7.85156 11.3848V20.7246C7.85156 29.0625 7.86328 30.0937 7.94531 30.2637C8.17969 30.7559 8.53711 30.8496 9.4043 30.6504C9.92578 30.5273 12.3633 29.7598 14.9648 28.9043C16.0605 28.541 16.3477 28.4707 16.5469 28.4941C17.2852 28.5996 19.1309 28.7871 20.8535 28.9453C21.9258 29.0391 23.7305 29.2383 24.8672 29.3848C27.5039 29.7187 27.8906 29.7598 29.0684 29.8125L30.041 29.8652L30.5215 30.1406C31.4941 30.7148 31.875 31.2187 31.875 31.9453C31.875 32.3027 31.1719 35.9297 30.1172 40.9863C29.8828 42.1055 29.8711 42.1934 29.8945 42.9492C29.918 43.6055 29.9473 43.8105 30.0762 44.1738C30.5156 45.4219 31.5 46.2305 33.0938 46.6406L33.3398 46.7051V47.6953C33.3398 48.8027 33.3926 49.1426 33.6387 49.6699C34.0957 50.6309 34.9629 51.1523 36.1055 51.1523C37.166 51.1523 38.0566 50.5898 38.5195 49.6289L38.7012 49.248L38.7188 47.8125L38.7363 46.377L39.1465 46.1484C39.6387 45.8672 40.0664 45.4629 40.377 44.9883C40.834 44.2793 40.8398 44.2559 42.252 37.6758C43.166 33.3926 43.2246 33.1641 43.4766 32.6543C43.8105 31.9805 44.2031 31.5762 44.9707 31.1191C46.9512 29.9355 48.2578 28.5117 49.3945 26.2793C50.168 24.7676 50.5078 23.2207 50.5078 21.2344C50.5078 18.3633 49.3711 15.6035 47.2734 13.3828C46.418 12.4863 44.9414 11.4668 43.7695 10.9687C42.1699 10.2891 40.1543 9.9375 38.4961 10.0547ZM40.6465 12.1582C41.5605 12.2812 42.1055 12.4219 42.7617 12.7031C44.6836 13.5293 46.2773 14.9648 47.2617 16.7402C47.6426 17.4258 48.1172 18.6035 48.3281 19.3887C48.4688 19.916 48.4805 20.0391 48.4805 21.2402C48.4805 22.7051 48.4043 23.1855 47.9883 24.4395C47.7129 25.2715 47.4785 25.7461 46.9453 26.543C46.1367 27.75 45.5742 28.2949 44.1152 29.2676C43.6172 29.6016 43.0723 29.9941 42.9023 30.1465C42.5156 30.498 41.9414 31.2539 41.6953 31.752C41.3672 32.4023 41.2969 32.6836 40.4941 36.5039C39.9375 39.1523 39.3223 41.9883 39.1641 42.6562C38.9648 43.4766 38.7012 44.0273 38.373 44.332C37.8926 44.7715 37.8691 44.7715 35.4199 44.7539L33.252 44.7363L32.8594 44.543C32.1328 44.1855 31.875 43.7109 31.875 42.75C31.875 42.3164 31.9629 41.7949 32.3496 39.9023C33.7676 32.9531 33.8672 32.4316 33.8672 32.0566C33.8613 30.1289 32.3613 28.4121 30.3574 28.0254C29.9355 27.9492 24.5801 27.3926 19.6875 26.9238C18.4805 26.8066 17.4316 26.7012 17.3613 26.6836L17.2266 26.6602V20.7422C17.2266 15.9023 17.2383 14.8242 17.3027 14.8242C17.4082 14.8242 22.1133 14.2324 24.2871 13.9453C25.2539 13.8164 27.5859 13.5117 29.4727 13.2715C32.6484 12.8613 33.9961 12.6797 37.1484 12.2461C38.5605 12.0527 39.627 12.0293 40.6465 12.1582ZM10.6113 13.2363C11.3672 13.4766 14.4082 14.4258 14.9004 14.5723L15.1758 14.6602V20.707V26.7539L13.2598 27.3809C11.0742 28.0898 10.0957 28.4004 9.93164 28.4297C9.81445 28.4473 9.81445 28.3711 9.80859 20.7246C9.80273 16.4824 9.82031 13.0078 9.84375 13.0078C9.86719 13.0078 10.2129 13.1133 10.6113 13.2363ZM36.7852 47.6777C36.7559 48.75 36.7148 48.9316 36.4395 49.0781C36.3457 49.125 36.1699 49.1602 36.0352 49.1602C35.8477 49.1602 35.7539 49.1191 35.5781 48.9609L35.3613 48.7617L35.3438 47.7305L35.3262 46.6992H36.0645H36.8086L36.7852 47.6777Z" fill="black"/>
<path d="M37.7985 15.3223C35.8415 15.75 34.5524 16.7871 33.5856 18.7207C32.9294 20.0449 32.7653 21.498 33.1286 22.916C33.6853 25.125 35.1267 26.6016 37.4294 27.3281C39.1696 27.8789 41.1735 27.457 42.8786 26.1973C44.4079 25.0605 45.1989 23.4023 45.1931 21.3281C45.1931 19.6875 44.6364 18.2871 43.5524 17.1621C42.6032 16.1777 41.4958 15.5859 40.1364 15.3281C39.5446 15.2109 38.3142 15.2109 37.7985 15.3223ZM39.9489 17.3203C40.2009 17.3672 40.6286 17.5195 40.9274 17.666C41.8005 18.0879 42.4157 18.6973 42.8317 19.541C43.1774 20.2383 43.2712 20.6484 43.2653 21.4746C43.2653 22.0898 43.2419 22.2363 43.1013 22.6465C42.6149 24.0469 41.5661 25.0254 40.1364 25.4121C39.6208 25.5527 38.5485 25.5527 38.027 25.4121C36.1286 24.9141 34.8161 23.1035 34.9392 21.1641C34.9802 20.543 35.2263 19.7226 35.5192 19.248C36.4509 17.7187 38.1911 16.9629 39.9489 17.3203Z" fill="black"/>
</svg>
