<svg width="60" height="60" viewBox="0 0 60 60" fill="none" xmlns="http://www.w3.org/2000/svg">
<path d="M28.0372 11.0156C26.6837 11.0859 24.8204 11.2265 23.4083 11.373C22.7638 11.4375 21.715 11.5429 21.0763 11.6074C19.963 11.7187 19.881 11.7187 19.2013 11.625C18.3751 11.5136 17.8654 11.5371 17.3908 11.7187C16.922 11.8945 16.4591 12.3281 16.2189 12.8203L16.0255 13.2129L16.0197 14.2675C16.0138 15.0175 15.9787 15.5742 15.8908 16.1836C15.6622 17.7246 15.5802 18.8027 15.5451 20.6074C15.5158 22.207 15.5685 23.5722 15.6798 24.2343C15.715 24.4394 15.7912 24.4043 14.2384 24.9668C12.3458 25.6523 11.9767 25.7988 11.4201 26.0742C10.0841 26.7304 9.28725 27.457 8.81264 28.4414C8.52553 29.039 8.4142 29.6074 8.45521 30.2871C8.52553 31.459 9.02943 32.3086 9.98451 32.8652L10.254 33.0234L9.86732 33.4043C8.92396 34.3359 8.31459 35.6953 8.22084 37.0605C8.13295 38.3789 8.58412 39.9785 9.33998 41.039C9.90248 41.83 10.8458 42.5625 11.8478 42.9902C12.3283 43.1953 14.7013 44.0156 19.0138 45.4687C20.2384 45.8789 22.5997 46.6875 24.2579 47.2558C29.631 49.1015 29.297 49.0136 30.9376 49.0078C32.6837 49.0078 33.34 48.832 35.5372 47.7949C37.3595 46.9336 40.8693 45.2461 42.0997 44.6367C42.715 44.3379 43.506 43.9511 43.8576 43.7871C46.0255 42.7734 47.7189 41.9707 48.1583 41.748C49.5411 41.0566 50.6134 40.084 51.1349 39.0527C51.2052 38.9238 51.3283 38.5957 51.422 38.3203C51.5744 37.8515 51.5861 37.7578 51.5861 36.8261C51.5861 35.9004 51.5744 35.8007 51.4337 35.4082C51.3517 35.1738 51.2111 34.8574 51.1173 34.705C50.9181 34.3593 50.3263 33.7324 50.0451 33.5625C49.9279 33.4922 49.8283 33.4336 49.8224 33.4277C49.8107 33.4218 49.9513 33.1992 50.1212 32.9355C51.4513 30.9199 51.0822 28.3711 49.2189 26.6425C48.3107 25.8047 47.0978 25.1425 45.1466 24.4336L44.3849 24.1523L44.3908 23.7832C44.3966 23.5781 44.4318 22.9043 44.4669 22.289C44.5665 20.5957 44.4435 18.4511 44.1388 16.4355C44.0158 15.6445 43.9865 15.205 43.9806 14.2968L43.9747 13.1543L43.7814 12.7617C43.6525 12.498 43.4884 12.2812 43.2833 12.0996C42.6974 11.584 42.0119 11.455 40.8048 11.625L40.1076 11.7246L38.5255 11.5488C36.6095 11.3379 34.6818 11.1562 33.4572 11.0742C32.1857 10.9863 29.2208 10.957 28.0372 11.0156ZM34.1896 13.207C34.8341 13.2597 36.299 13.3945 37.4415 13.5117C39.6681 13.7402 40.4298 13.7695 41.3029 13.6523C42.0411 13.5586 42.0353 13.5527 41.9533 14.3847C41.8829 15.0761 41.9005 15.3398 42.0997 16.9336C42.3107 18.5742 42.3634 19.3828 42.3634 20.9707C42.3634 22.3828 42.2872 23.4668 42.0997 24.8437C41.9298 26.1093 41.8947 26.707 41.9591 27.4687C42.0353 28.4121 42.047 28.4004 41.3146 28.3007C40.5704 28.1953 39.0997 28.2539 36.8673 28.4707C33.5744 28.7929 32.924 28.8398 30.8087 28.8691C28.1017 28.9101 27.1818 28.8632 22.8517 28.4414C20.9415 28.2597 19.3126 28.2011 18.6329 28.2949C17.9415 28.3886 17.9533 28.4062 18.0529 27.3984C18.1349 26.5488 18.129 26.5019 17.7775 23.8476C17.7306 23.5078 17.6779 22.4414 17.6603 21.4746C17.6193 19.6113 17.6662 18.6211 17.8771 16.9922C18.088 15.3222 18.1115 15.0175 18.047 14.3613C17.9708 13.541 17.9591 13.5527 18.7619 13.6582C19.5236 13.7578 20.379 13.7461 21.3576 13.6289C22.4943 13.4941 25.2482 13.2597 26.5138 13.1836C27.129 13.1484 27.7736 13.1132 27.9494 13.1015C28.7814 13.0488 33.1056 13.125 34.1896 13.207ZM44.5665 26.373C46.5236 27.0644 47.7658 27.8261 48.3576 28.6875C48.8966 29.4843 49.0314 30.2988 48.756 31.125C48.3927 32.2207 47.7951 32.7304 45.7091 33.7382C43.2716 34.916 37.2189 37.7636 33.5451 39.4629C30.8849 40.6933 30.0294 40.957 28.6466 40.957C27.4689 40.957 27.0001 40.8574 24.0646 39.9609C23.1212 39.6738 21.1701 39.0937 19.7169 38.6718C18.2697 38.25 16.2658 37.6582 15.2638 37.3652C13.1076 36.7324 12.8497 36.7031 12.5158 37.0254C12.0177 37.5058 12.1642 38.332 12.8146 38.6836C12.9669 38.7656 13.8341 39.0527 14.7365 39.3164C16.2892 39.7675 21.5685 41.3437 24.5333 42.2402C26.6603 42.8847 26.8419 42.914 28.506 42.914C30.8263 42.914 31.1193 42.8203 35.7423 40.6465C36.5978 40.248 38.379 39.4101 39.6974 38.789C41.0216 38.1679 43.1661 37.1484 44.4728 36.5156C45.7794 35.8886 47.1388 35.2382 47.4962 35.0683L48.1525 34.7578L48.5392 34.9746C49.3185 35.3965 49.5587 35.7949 49.6115 36.7441C49.6642 37.623 49.3595 38.3554 48.6857 38.9882C48.0763 39.5625 47.2853 40.0078 44.5314 41.2968C43.7755 41.6484 42.1935 42.4101 41.0158 42.9785C34.7638 46.0078 33.4513 46.6054 32.4318 46.8867C31.8927 47.0332 30.797 47.0859 30.1876 46.998C29.5431 46.9043 29.338 46.8398 25.0783 45.3808C23.0333 44.6836 19.4474 43.4648 17.1154 42.6797C14.7833 41.8886 12.715 41.1621 12.5158 41.0625C11.0626 40.3359 10.3478 39.2461 10.2716 37.6347C10.2189 36.6035 10.3712 36.0644 10.9103 35.3437C11.3263 34.7871 12.2579 34.2187 13.1017 34.0078C13.4826 33.9082 13.4884 33.914 13.9923 34.0605C14.2736 34.1484 15.3458 34.4414 16.3771 34.7168C20.672 35.8711 24.4865 36.9199 24.7853 37.0195C25.6349 37.3125 26.0333 37.6172 26.3439 38.209C26.59 38.6777 26.8009 38.8769 27.1466 38.9707C27.5802 39.0879 27.9318 38.959 28.2072 38.5898C28.3068 38.4609 28.3302 38.3437 28.3302 38.0097C28.3244 37.4707 28.1251 37.0488 27.6271 36.5156C27.1759 36.0293 26.6954 35.6894 25.9513 35.332C25.2072 34.9804 24.7501 34.8457 20.0392 33.5742C16.6525 32.6601 13.547 31.8105 11.8654 31.3359C10.8224 31.0429 10.5997 30.8789 10.4943 30.3281C10.3595 29.5898 10.7404 28.8632 11.5724 28.2656C12.0177 27.9492 12.4279 27.7675 13.7521 27.2812C14.6837 26.9414 15.0646 26.7949 15.8439 26.455L16.0665 26.3613L16.0255 27.4687C15.9845 28.4472 15.9962 28.6172 16.0841 28.8925C16.3302 29.6367 16.8517 30.1289 17.6076 30.3281C17.9884 30.4336 18.1701 30.4277 19.0197 30.3105L19.7345 30.2168L22.799 30.5156C26.713 30.9023 27.0529 30.9316 28.9982 30.9726C30.7033 31.0136 33.047 30.9375 34.3712 30.791C34.7872 30.75 36.2931 30.5976 37.7228 30.4629L40.3185 30.2109L41.0451 30.3164C42.1408 30.4746 42.7384 30.3457 43.3009 29.8418C43.8576 29.3379 44.0802 28.6523 43.9982 27.6562C43.922 26.7656 43.9396 26.1914 44.0392 26.1914C44.0451 26.1914 44.2853 26.2734 44.5665 26.373Z" fill="black"/>
<path d="M39.1466 17.6191C38.6779 17.8534 38.4728 18.5917 38.7306 19.1308C39.0939 19.8866 40.09 19.9335 40.4767 19.2128C40.7697 18.6679 40.5529 17.8476 40.049 17.6132C39.797 17.4902 39.3986 17.496 39.1466 17.6191Z" fill="black"/>
<path d="M39.1991 21.9257C38.8358 22.1074 38.5897 22.5761 38.6366 22.9804C38.6952 23.5136 39.0526 23.9824 39.4686 24.0585C39.8905 24.1347 40.3827 23.8183 40.5936 23.3203C40.7167 23.0214 40.6581 22.6054 40.453 22.3066C40.1249 21.8437 39.6444 21.6972 39.1991 21.9257Z" fill="black"/>
</svg>
