<svg width="60" height="60" viewBox="0 0 60 60" fill="none" xmlns="http://www.w3.org/2000/svg">
<path d="M26.9121 12.7441C26.1738 12.9023 25.418 13.4473 25.1191 14.0391C24.8965 14.4727 24.8437 14.7305 24.8086 15.5273C24.791 15.9316 24.7676 16.2891 24.7559 16.3242C24.7441 16.3594 24.5215 16.4062 24.2461 16.4238C23.5957 16.4766 21.8848 16.7754 20.9766 16.998C18.832 17.5254 17.1211 18.2812 15.7207 19.3125C14.707 20.0625 13.8691 20.9297 13.4824 21.6328L13.3301 21.9141H12.8555C12.457 21.9141 12.3457 21.9375 12.1816 22.0488C11.7598 22.3359 11.6133 22.875 11.8301 23.3555C12.0059 23.7422 12.2344 23.8652 12.8437 23.8945L13.3594 23.918V25.0664V26.209L12.0879 26.168C11.3848 26.1445 10.4297 26.127 9.9668 26.127C8.97656 26.127 8.78906 26.1914 8.55469 26.6074C8.4082 26.8652 8.4082 26.8711 8.4082 28.3945V29.918L8.58398 30.2695C8.88867 30.8555 9.26953 31.0137 12.2285 31.7402L13.3535 32.0215L13.3711 37.2363L13.3887 42.4512L13.5996 43.0488C14.0098 44.2207 14.8066 45.252 15.8203 45.9316C16.3535 46.2891 16.7402 46.459 17.3965 46.6289C17.7539 46.7227 18.7266 46.7285 30.0586 46.7285H42.334L42.8496 46.5645C44.6602 45.9961 45.9902 44.6133 46.5352 42.7383L46.6699 42.2754V37.125V31.9746L48.0176 31.6406C50.6953 30.9668 51.0176 30.8496 51.2988 30.416C51.5391 30.0527 51.5684 29.8594 51.5918 28.3594C51.6152 26.7539 51.6035 26.666 51.2227 26.3789L51.0117 26.2207H48.8555H46.6934L46.6816 25.0605L46.6699 23.9062H47.1445C47.6836 23.9062 47.9062 23.8008 48.1465 23.4434C48.416 23.0449 48.2695 22.377 47.8594 22.0781C47.7012 21.9668 47.5781 21.9375 47.1387 21.9199L46.6113 21.9023L46.3242 21.4102C45.9727 20.8066 45.6738 20.4551 45.0879 19.9395C43.834 18.832 42.3516 18.0176 40.4648 17.4082C38.9941 16.9277 36.9316 16.5059 35.4785 16.3887L35.3027 16.377L35.2617 15.6738C35.1855 14.3965 35.0332 13.998 34.418 13.4238C34.166 13.1836 33.9199 13.0254 33.5977 12.8848L33.1348 12.6855L30.2051 12.6797C27.9785 12.6738 27.1875 12.6855 26.9121 12.7441ZM32.3672 14.6777C32.6836 14.6953 32.9941 14.7363 33.0527 14.7715C33.2344 14.8652 33.2988 15.0586 33.334 15.627L33.3691 16.1719H30.9668C29.6484 16.1719 28.1484 16.1895 27.6445 16.2129L26.7187 16.248V15.6504C26.7187 15.0645 26.7246 15.0469 26.8887 14.877C27.0059 14.7656 27.1289 14.707 27.2578 14.7012C27.75 14.6777 31.5117 14.6191 31.6406 14.6309C31.7227 14.6367 32.0449 14.6602 32.3672 14.6777ZM33.4277 18.2227C35.8711 18.3516 37.3184 18.5391 38.9648 18.9551C41.1387 19.5 42.6094 20.2676 44.2969 21.7383L44.4961 21.9141H30.0469H15.5918L15.8965 21.627C16.4648 21.0938 17.3086 20.5137 18.1055 20.1035C20.3086 18.9785 22.8457 18.4219 26.7773 18.2051C27.6094 18.1582 32.4375 18.1699 33.4277 18.2227ZM44.748 32.9121C44.7305 43.002 44.7656 42.1582 44.332 43.0371C43.9453 43.8164 43.3359 44.3555 42.5215 44.6309L42.041 44.7949L30.1465 44.8066C20.1504 44.8184 18.1875 44.8066 17.8359 44.7363C16.6641 44.5078 15.7559 43.5996 15.3691 42.2754C15.2695 41.9473 15.2637 41.3145 15.2461 32.918L15.2344 23.9062L29.8945 23.8887C37.9629 23.8828 44.6074 23.8711 44.666 23.8594C44.7656 23.8477 44.7656 24.2578 44.748 32.9121ZM12.6738 28.1191L13.3594 28.125V28.9688C13.3594 29.4609 13.3359 29.8301 13.3008 29.8535C13.248 29.8828 10.7988 29.3086 10.4824 29.1855C10.3477 29.1387 10.3418 29.1211 10.3594 28.5879L10.377 28.0371L11.1797 28.0723C11.6191 28.0957 12.293 28.1133 12.6738 28.1191ZM49.6289 28.623V29.1738L49.4121 29.2324C49.2187 29.2852 47.1797 29.7773 46.834 29.8535L46.6992 29.8828V29.0625C46.6992 28.6113 46.6934 28.2246 46.6875 28.1953C46.6758 28.1719 47.2266 28.1426 47.9004 28.125C48.5801 28.1074 49.2422 28.084 49.3828 28.0781L49.6289 28.0664V28.623Z" fill="black"/>
</svg>
