<svg width="60" height="60" viewBox="0 0 60 60" fill="none" xmlns="http://www.w3.org/2000/svg">
<path d="M15.1466 7.06641C14.4844 7.20704 13.9337 7.50586 13.4473 7.98633C12.9434 8.49024 12.6387 9.01172 12.4805 9.64454C12.3634 10.1016 12.3634 10.3125 12.3751 30.4688C12.3926 50.5781 12.3926 50.8359 12.5098 51.1523C12.7735 51.8906 13.4239 52.5645 14.1622 52.8633L14.502 52.998H29.9415H45.3809L45.7794 52.8574C46.5411 52.5996 47.2149 51.9258 47.4903 51.1523C47.6075 50.8359 47.6075 50.5781 47.6251 30.5098C47.6368 12.7852 47.6251 10.1367 47.5489 9.77344C47.2969 8.56055 46.3536 7.52344 45.1173 7.10743C44.8067 7.00782 44.2149 7.00196 30.1759 6.99024C17.4083 6.98438 15.504 6.99024 15.1466 7.06641ZM32.9298 27.0996V45.4688H25.9864H19.043V30.334C19.043 13.8691 19.0196 14.9707 19.3477 14.332C19.5001 14.0273 19.9278 13.582 20.2618 13.3652C21.0587 12.8613 22.3477 12.8848 23.1094 13.418C23.6075 13.7637 23.9532 14.2148 24.1348 14.7539C24.3165 15.2871 24.3282 15.2754 23.7891 15.3047C23.1739 15.3398 22.5997 15.6152 22.1016 16.1133C21.3223 16.8926 20.9825 18.2344 21.4923 18.5098C21.6622 18.5977 28.6114 18.5977 28.7813 18.5098C29.3028 18.2285 28.9102 16.8281 28.1016 16.0664C27.5801 15.5859 27.0821 15.3516 26.4786 15.3106L26.0157 15.2754V15.0586C26.0157 14.7129 25.7989 13.9688 25.5762 13.541C25.1661 12.7617 24.463 12.0879 23.6426 11.6836C22.9278 11.332 22.4239 11.2324 21.504 11.2676C20.3262 11.3086 19.5997 11.6133 18.7266 12.4277C18.1759 12.9434 17.7891 13.5176 17.5548 14.1738L17.3731 14.6777L17.3555 30.0703L17.3438 45.4688H15.7325H14.1212L14.1329 27.7559L14.1505 10.0488L14.3087 9.75C14.4844 9.41602 14.8536 9.0586 15.17 8.91797C15.3634 8.82422 16.1602 8.81836 24.1407 8.78907C28.9571 8.77149 32.9063 8.75391 32.918 8.74219C32.9239 8.73633 32.9298 16.9981 32.9298 27.0996ZM44.8829 8.97657C45.1524 9.11719 45.3223 9.25196 45.4805 9.46289C45.9141 10.0313 45.879 8.40821 45.879 27.9023V45.4688H40.2833H34.6876V27.1113V8.75977L39.5919 8.77149L44.502 8.78907L44.8829 8.97657ZM45.8673 48.8555C45.879 50.3848 45.879 50.4258 45.7501 50.6777C45.6739 50.8242 45.5391 50.9941 45.4512 51.0586L45.2872 51.1816H30.0001H14.713L14.5548 51.0586C14.4669 50.9941 14.338 50.8652 14.2735 50.7773C14.1563 50.625 14.1505 50.5254 14.1329 48.9375L14.1153 47.2559L29.9825 47.2676L45.8497 47.2852L45.8673 48.8555Z" fill="black"/>
<path d="M22.0785 20.1504L21.8851 20.3203L21.8675 21.457C21.8558 22.5058 21.8617 22.5996 21.973 22.7812C22.1957 23.1387 22.6585 23.1738 22.9339 22.8457C23.0863 22.6699 23.0863 22.6641 23.0863 21.5215V20.3789L22.8871 20.1797C22.6234 19.916 22.348 19.9043 22.0785 20.1504Z" fill="black"/>
<path d="M24.832 20.0742C24.7441 20.1211 24.6445 20.209 24.6094 20.2734C24.5742 20.3379 24.5508 20.8477 24.5508 21.5039C24.5508 22.7754 24.5859 22.9102 24.9316 23.0273C25.2012 23.1152 25.459 23.0566 25.6055 22.8691C25.7168 22.7285 25.7227 22.6348 25.7227 21.5215V20.3203L25.5527 20.1504C25.3594 19.957 25.0957 19.9277 24.832 20.0742Z" fill="black"/>
<path d="M27.4102 20.1504L27.2168 20.3203V21.5273V22.7344L27.3809 22.8926C27.5098 23.0215 27.5977 23.0566 27.8086 23.0566C28.0371 23.0566 28.1016 23.0273 28.248 22.8633L28.4238 22.6641L28.4062 21.4922L28.3887 20.3203L28.1953 20.1504C27.9375 19.9219 27.668 19.9219 27.4102 20.1504Z" fill="black"/>
<path d="M23.502 24.4101C23.2559 24.5859 23.2031 24.8261 23.2031 25.8398C23.2031 26.8535 23.2559 27.0937 23.502 27.2695C23.707 27.4101 24.0469 27.3925 24.2402 27.2226L24.4043 27.082L24.4219 25.8984L24.4395 24.7207L24.2402 24.5215C24.0059 24.2871 23.7363 24.2519 23.502 24.4101Z" fill="black"/>
<path d="M26.0684 24.4863L25.8984 24.6562V25.8281V27L26.0508 27.1816C26.1797 27.334 26.2441 27.3633 26.4668 27.3633C26.6777 27.3633 26.7598 27.3281 26.9004 27.1934L27.0703 27.0234V25.9043C27.0703 24.6973 27.041 24.5391 26.7715 24.3984C26.5078 24.2637 26.2617 24.293 26.0684 24.4863Z" fill="black"/>
<path d="M36.9727 26.8711C36.7324 26.959 36.6094 27.0527 36.5039 27.2227C36.3926 27.3984 36.3867 27.5215 36.3867 29.8887C36.3867 32.25 36.3926 32.3848 36.5039 32.5606C36.8145 33.0762 37.6113 33.0293 37.8809 32.4785C37.957 32.3262 37.9688 31.9336 37.9688 29.8711C37.9688 27.5742 37.9629 27.4395 37.8516 27.2637C37.793 27.1582 37.6758 27.0352 37.5996 26.9824C37.4414 26.8828 37.1133 26.8242 36.9727 26.8711Z" fill="black"/>
</svg>
