<svg width="60" height="60" viewBox="0 0 60 60" fill="none" xmlns="http://www.w3.org/2000/svg">
<path d="M10.9455 11.4258C9.46891 11.6777 8.20329 12.7617 7.69352 14.209L7.52946 14.6777L7.51188 28.7109C7.49431 44.502 7.45329 43.1426 7.9572 44.1387C8.45524 45.1406 9.41618 45.9141 10.547 46.2188C10.9045 46.3125 12.0353 46.3184 30.0295 46.3184C48.3107 46.3184 49.1486 46.3125 49.5119 46.2129C50.2502 46.0078 50.7248 45.7207 51.3049 45.1465C51.7384 44.7188 51.8849 44.5254 52.0842 44.1211C52.5295 43.207 52.5002 44.3906 52.5002 28.8867C52.5002 13.5352 52.5236 14.5664 52.1252 13.7402C51.6213 12.6797 50.7482 11.918 49.5998 11.5312L49.1896 11.3965L30.2052 11.3906C19.7638 11.3848 11.0978 11.4023 10.9455 11.4258ZM49.1779 13.5879C49.5939 13.793 49.9924 14.1855 50.2209 14.6016L50.4201 14.9707V28.8867V42.8027L50.2502 43.1426C50.0451 43.541 49.6232 43.957 49.2365 44.1387L48.9552 44.2676H30.0295H11.1037L10.8224 44.1387C10.4416 43.9629 9.95524 43.4824 9.75016 43.084L9.58024 42.7441V28.8867V15.0293L9.73845 14.707C10.0314 14.1094 10.4709 13.7109 11.0627 13.5C11.2384 13.4355 14.7072 13.4238 30.0881 13.4355L48.8967 13.4473L49.1779 13.5879Z" fill="black"/>
<path d="M19.9219 16.5176V17.0391L19.5586 17.0801C17.5723 17.3027 15.832 18.3984 14.7363 20.1211C14.2324 20.9121 13.9453 21.7559 13.7988 22.8633L13.7637 23.1445H13.2363H12.7148V23.5254V23.9062H13.2363H13.7637L13.7988 24.1816C13.916 25.0664 14.1152 25.7754 14.4258 26.3906C15.1875 27.9141 16.5762 29.1504 18.1113 29.6836C18.6328 29.8594 19.3066 30 19.6641 30H19.9219V30.5859V31.1719H20.3027H20.6836V30.5918V30.0176L21.1113 29.9824C22.4238 29.8828 23.7773 29.2383 24.8672 28.1836C25.9863 27.0996 26.666 25.7461 26.8125 24.2871L26.8535 23.9062H27.3984H27.9492V23.5254V23.1445H27.4043H26.8594L26.7891 22.6172C26.4023 19.7461 23.9473 17.3555 21.0879 17.0742L20.6836 17.0332V16.5176V15.9961H20.3027H19.9219V16.5176ZM20.3027 19.4531H20.6836V18.6328V17.8066L20.9941 17.8477C22.3418 18.0117 23.3965 18.5273 24.3809 19.5059C24.9902 20.1211 25.3828 20.6953 25.6582 21.3867C25.8457 21.8613 26.0156 22.5996 26.0156 22.9395V23.1445H25.2246H24.4336V23.5254V23.9062H25.2422H26.0508L26.0098 24.3105C25.9453 24.9199 25.7988 25.3945 25.4824 26.0449C24.8965 27.2578 23.959 28.1602 22.6641 28.7695C22.125 29.0215 21.3281 29.2383 20.9355 29.2383H20.6836V28.4766V27.7148H20.3027H19.9277L19.9102 28.4941L19.8926 29.2734L19.3887 29.2031C17.4258 28.916 15.7324 27.5449 14.9121 25.5762C14.7949 25.2891 14.5898 24.3574 14.5898 24.0938V23.9062H15.4102H16.2305V23.5254V23.1445H15.4102H14.5898V22.9219C14.5957 22.4766 14.8242 21.6504 15.1113 21.0645C15.9609 19.3418 17.7012 18.082 19.5234 17.8828L19.8926 17.8418L19.9102 18.6445L19.9277 19.4531H20.3027Z" fill="black"/>
<path d="M19.3299 20.4668C18.7908 20.6484 18.3221 20.9531 17.953 21.3457C16.8104 22.5762 16.7987 24.457 17.9237 25.7344C18.8084 26.7305 20.4139 27.0644 21.6502 26.5137C23.3319 25.7637 24.0233 23.789 23.1912 22.0957C22.828 21.3515 22.0135 20.6836 21.158 20.4258C20.6717 20.2851 19.8104 20.3027 19.3299 20.4668Z" fill="black"/>
<path d="M39.3164 16.5234C39.3164 16.8105 39.2988 17.0508 39.2754 17.0508C39.2461 17.0508 38.9941 17.0801 38.7012 17.1152C35.9004 17.4551 33.4746 19.9395 33.1875 22.7461L33.1465 23.1445H32.6309H32.1094V23.5254V23.9062H32.6367H33.1641V24.123C33.1641 24.2461 33.2051 24.5273 33.252 24.7559C33.8613 27.6152 36.1113 29.6953 38.9824 30.0352L39.3164 30.0703V30.6211V31.1719H39.6973H40.0781V30.6211V30.0703L40.4766 30.0293C43.4121 29.7246 45.8906 27.2461 46.2012 24.2988L46.2422 23.9062H46.8223H47.4023V23.5254V23.1445H46.8223H46.2422L46.2012 22.7754C46.1426 22.2129 45.9023 21.3633 45.6445 20.8184C44.8184 19.0488 43.1953 17.707 41.3145 17.2324C41.0391 17.168 40.7344 17.1094 40.6289 17.1094C40.5293 17.1094 40.3594 17.0918 40.2598 17.0742L40.0781 17.0332V16.5176V15.9961H39.6973H39.3164V16.5234ZM39.3164 18.6621V19.4531H39.6973H40.0781V18.6562V17.8535L40.5059 17.8887C41.9883 18.0176 43.6113 19.0195 44.4902 20.3496C44.9941 21.1055 45.4043 22.2656 45.4102 22.9219V23.1445H44.6191H43.8281V23.5254V23.9062H44.6191H45.4102V24.1523C45.4043 24.8438 45.0352 25.9043 44.5195 26.6719C43.541 28.1309 42.0117 29.0742 40.3301 29.2559L40.0781 29.2852V28.5V27.7148H39.6973H39.3223L39.3047 28.4883L39.2871 29.2676L39.0527 29.25C38.6543 29.2207 37.8691 29.0156 37.4297 28.8281C36.1758 28.2949 34.998 27.1465 34.4473 25.9102C34.2539 25.4883 34.0137 24.6387 33.9609 24.1816L33.9258 23.9062H34.7461H35.5664V23.5254V23.1445H34.7402H33.9199L33.9551 22.8633C34.1719 21.3105 34.9102 20.0098 36.1113 19.0488C36.9492 18.3867 38.1797 17.8945 39.0703 17.877L39.3164 17.8711V18.6621Z" fill="black"/>
<path d="M38.725 20.4668C37.5414 20.8711 36.6742 21.8906 36.4984 23.0977C36.2171 25.0195 37.7406 26.7715 39.6918 26.7773C40.5824 26.7773 41.3207 26.4727 41.9535 25.8398C42.9906 24.8027 43.2132 23.3086 42.5218 22.002C42.2816 21.5508 41.6664 20.9355 41.2211 20.7012C40.4769 20.3086 39.4632 20.2148 38.725 20.4668Z" fill="black"/>
<path d="M11.543 34.7461V35.332L29.9883 35.3203L48.4277 35.3027V34.7461V34.1895L29.9883 34.1719L11.543 34.1602V34.7461Z" fill="black"/>
<path d="M19.8341 37.9278C19.2833 38.1153 18.9083 38.4434 18.6798 38.9356C18.4806 39.3809 18.4923 39.9961 18.7091 40.4414C19.1134 41.2735 20.0451 41.666 20.924 41.3848C21.3458 41.25 21.9083 40.7051 22.049 40.2891C22.172 39.9258 22.1779 39.416 22.0548 39.0645C21.9318 38.7071 21.504 38.2383 21.1408 38.0508C20.7833 37.8692 20.1798 37.8164 19.8341 37.9278Z" fill="black"/>
<path d="M39.0999 37.957C37.5648 38.5078 37.4359 40.5762 38.8948 41.291C39.182 41.4316 39.2991 41.4551 39.7269 41.4551C40.1488 41.4551 40.2659 41.4316 40.5238 41.2969C41.3909 40.8398 41.7484 39.8203 41.3558 38.9531C40.9573 38.0859 39.9671 37.6465 39.0999 37.957Z" fill="black"/>
</svg>
