<svg width="60" height="60" viewBox="0 0 60 60" fill="none" xmlns="http://www.w3.org/2000/svg">
<path d="M26.3379 6.65625C26.2734 6.66211 25.9336 6.70313 25.5762 6.73829C22.4766 7.07227 19.6641 8.58985 17.7539 10.9688C17.1855 11.6719 17.0156 11.959 16.8105 12.5625L16.6523 13.0371H13.3828C11.5781 13.0371 10.043 13.0606 9.96094 13.0898C9.72656 13.1719 9.42773 13.3945 9.31055 13.5762C9.22852 13.6992 9.19922 13.8516 9.19922 14.1563C9.19922 14.5606 9.2168 14.6133 9.61523 15.416C9.84375 15.8789 10.4414 17.127 10.9395 18.1934C11.4434 19.2539 12.0117 20.4551 12.2168 20.8594L12.5801 21.5918L12.4453 22.1191C11.168 27.0703 10.2305 32.2852 9.84375 36.5918C9.66797 38.6074 9.60938 40.0195 9.60938 42.791C9.60938 45.668 9.63281 45.8672 10.0488 46.7285C10.3594 47.373 10.8633 47.9883 11.3496 48.3047L11.7129 48.5449L11.7188 48.9551C11.7363 50.3906 11.9004 51.3457 12.2344 51.9141C12.5977 52.5469 13.3242 53.1035 14.0625 53.3027C14.4199 53.4023 15.0938 53.4082 26.3672 53.4082C37.752 53.4082 38.3086 53.4023 38.6719 53.3027C39.1875 53.1563 39.6328 52.8926 40.0254 52.5C40.7402 51.791 40.9629 50.9238 41.0156 48.6504C41.0156 48.5625 41.1328 48.4395 41.3965 48.252C41.8887 47.9063 42.3633 47.3086 42.6504 46.6934C43.043 45.8438 43.0371 45.8906 43.0312 42.4922V39.4336L43.2656 39.3691C45 38.9121 46.9395 37.7109 48.3457 36.2168C49.9688 34.5 50.8359 32.8008 51.2871 30.4688C51.4102 29.8125 51.416 29.6895 51.416 25.5762C51.416 20.8477 51.4336 21.082 50.9707 19.6582C50.1562 17.1504 48.2754 15.0645 45.8613 13.9922C45.123 13.6641 44.1387 13.3359 43.4121 13.1777C42.832 13.0488 42.6797 13.043 40.0312 13.0313L37.2598 13.0195L36.9609 12.5039C35.9531 10.7344 34.6113 9.33399 32.9062 8.2793C31.5586 7.44141 29.7891 6.86133 28.0723 6.68555C27.5215 6.62696 26.625 6.60938 26.3379 6.65625ZM28.1836 9.04688C28.8867 9.14063 29.8301 9.36914 30.3926 9.58008C31.459 9.98438 32.6016 10.7344 33.416 11.5723C33.8555 12.0234 34.5703 12.9141 34.5703 13.0137C34.5703 13.043 31.1016 13.0547 26.8652 13.0488C21.5332 13.043 19.1602 13.0195 19.1602 12.9727C19.1602 12.8906 19.6934 12.2285 20.1211 11.7891C22.1484 9.68555 25.2012 8.6543 28.1836 9.04688ZM35.7246 15.3633C35.9531 15.5508 37.207 19.1367 37.7871 21.2402C39.7734 28.4883 40.7812 35.8242 40.7812 43.0957C40.7812 45.668 40.7754 45.7207 40.2891 46.207C39.7441 46.7461 41.0977 46.6992 26.3086 46.6992C11.877 46.6992 12.9141 46.7285 12.4395 46.3184C12.3047 46.2012 12.123 45.9609 12.0293 45.7734L11.8652 45.4395L11.8477 43.6523C11.8242 41.8945 11.9004 39.2285 12.0117 37.5586C12.2871 33.5508 13.1367 28.5762 14.4551 23.291C14.7598 22.0605 14.7715 21.9727 14.7539 21.3574L14.7363 20.7129L13.9688 19.1309C13.0605 17.2559 12.1875 15.3926 12.1875 15.3164C12.1875 15.2402 35.6309 15.2813 35.7246 15.3633ZM42.8613 15.3809C44.7539 15.7207 46.7109 16.8926 47.7832 18.3164C48.4219 19.166 48.8789 20.1856 49.1016 21.2637C49.2129 21.8086 49.2188 22.0547 49.2188 25.5059C49.2188 28.8633 49.207 29.2207 49.1074 29.8359C48.832 31.418 48.2695 32.6777 47.2676 33.9258C46.207 35.25 44.9004 36.2637 43.459 36.8789C43.1719 37.002 42.9316 37.0898 42.9258 37.0781C42.9199 37.0723 42.8789 36.6621 42.8379 36.1816C42.7969 35.6953 42.75 35.2207 42.7324 35.127C42.709 34.957 42.7207 34.9453 43.2012 34.7285C44.666 34.0664 45.9316 32.7832 46.5879 31.3008C47.1797 29.9531 47.2559 29.1504 47.1797 25.0488C47.127 22.1895 47.127 22.1777 46.9688 21.6504C46.4355 19.8457 45.0996 18.2988 43.5703 17.7246C42.7734 17.4258 42.498 17.3906 40.6699 17.3496L38.9473 17.3145L38.6602 16.4063C38.502 15.9082 38.3613 15.4512 38.3438 15.3984C38.2969 15.2637 38.3672 15.2637 40.5176 15.2754C41.918 15.2813 42.457 15.3047 42.8613 15.3809ZM42.3926 19.7168C43.2715 19.9629 44.1621 20.6953 44.5488 21.5039C44.9648 22.3594 44.959 22.3125 44.9883 25.6465C45.0117 28.9805 44.9883 29.291 44.6426 30.1816C44.2969 31.0781 43.5586 31.9688 42.8027 32.4023C42.4453 32.6074 42.3691 32.5898 42.3633 32.3086C42.3633 32.0977 41.9121 29.4551 41.6367 28.0254C41.1328 25.4238 40.6172 23.2324 39.9199 20.6836C39.6445 19.6758 39.6504 19.6875 39.6621 19.6055C39.6738 19.5117 42 19.6113 42.3926 19.7168ZM38.7539 49.4941C38.707 50.4727 38.6953 50.5488 38.5547 50.7422C38.4785 50.8477 38.3145 50.9824 38.1797 51.041C37.9453 51.1465 37.5234 51.1523 26.3789 51.1523C16.6934 51.1523 14.7891 51.1406 14.6309 51.0703C14.4023 50.9766 14.1504 50.7129 14.0684 50.4902C13.998 50.3086 13.9805 49.0898 14.0449 49.0254C14.0625 49.002 19.6406 48.9844 26.4316 48.9844H38.7773L38.7539 49.4941Z" fill="black"/>
<path d="M32.3024 20.1211C31.2946 20.3672 30.5095 21.1465 30.1403 22.2656C30.0466 22.5586 30.0349 22.875 30.0173 25.6641C30.0056 27.3574 30.0173 30.4805 30.0407 32.6074L30.0876 36.4746L30.2517 36.8086C30.5622 37.4355 31.1306 37.8574 31.7927 37.957C31.986 37.9805 33.0876 38.0039 34.2478 38.0039L36.3571 37.998L36.6853 37.8457C37.3357 37.5352 37.7165 37.0547 37.8454 36.3574C38.0798 35.0859 37.5935 29.8301 36.8845 25.957C36.281 22.6699 35.947 21.6562 35.2321 20.9707C34.4646 20.2266 33.281 19.8867 32.3024 20.1211ZM33.3923 22.4121C33.7673 22.6055 33.9958 23.0801 34.2771 24.2578C34.4587 25.0371 34.5583 24.9609 33.3396 24.9609H32.2849V23.9473C32.2849 23.0449 32.2966 22.9219 32.4021 22.7461C32.6306 22.377 33.0466 22.2305 33.3923 22.4121ZM34.8806 27.3457C34.9743 27.832 35.2907 30.2344 35.2614 30.2637C35.2263 30.3047 32.361 30.334 32.3259 30.293C32.3024 30.2695 32.2614 27.4219 32.279 27.2285C32.2849 27.2051 32.8591 27.1875 33.5681 27.1875H34.8513L34.8806 27.3457ZM35.5896 32.9121C35.6482 33.4512 35.7419 34.916 35.7419 35.3438V35.7422H34.0134H32.2849V34.1602V32.5781H33.9196H35.5544L35.5896 32.9121Z" fill="black"/>
<path d="M35.0918 40.4238C34.4531 40.6289 33.9258 41.1094 33.6094 41.7715C33.4395 42.1289 33.4277 42.2051 33.4277 42.7734C33.4277 43.3418 33.4395 43.418 33.6152 43.7812C33.8672 44.3203 34.2598 44.7187 34.7695 44.9707C35.3438 45.2578 35.7949 45.334 36.3281 45.2402C37.2832 45.0703 38.0273 44.4434 38.3203 43.5586C38.5078 43.0019 38.4668 42.293 38.2148 41.7598C37.916 41.1152 37.4062 40.6465 36.7559 40.4238C36.3281 40.2773 35.5488 40.2773 35.0918 40.4238ZM36.1172 42.4863C36.3926 42.7031 36.2578 43.125 35.9062 43.125C35.7129 43.125 35.5078 42.9434 35.5078 42.7734C35.5078 42.6328 35.7539 42.3633 35.877 42.3633C35.9238 42.3633 36.0293 42.416 36.1172 42.4863Z" fill="black"/>
</svg>
