<svg width="60" height="60" viewBox="0 0 60 60" fill="none" xmlns="http://www.w3.org/2000/svg">
<path d="M7.8518 13.2011C7.31274 13.3476 6.89672 13.7167 6.65649 14.2382L6.51 14.5605L6.48657 25.6054C6.47485 31.6816 6.48071 37.705 6.49828 38.9941L6.53344 41.3378L6.69164 41.6367C6.89672 42.0292 7.36547 42.4453 7.75219 42.58C8.0393 42.6796 8.55493 42.6855 17.4612 42.6855H26.8655V44.2675V45.8495L22.5881 45.8671C19.9573 45.873 18.2288 45.9023 18.094 45.9374C17.8245 46.0136 17.5549 46.2304 17.4612 46.4589C17.4202 46.5703 17.3967 46.8163 17.4084 47.0917C17.4377 47.6249 17.5608 47.8535 17.9123 48.0175C18.1233 48.1171 18.6506 48.123 28.0081 48.1288C33.4397 48.1347 38.8245 48.123 39.9729 48.1054C41.9651 48.0761 42.0706 48.0703 42.2229 47.9531C42.5627 47.7011 42.6272 47.5546 42.6272 47.0038C42.6272 46.5585 42.6096 46.4706 42.4866 46.2949C42.4104 46.1894 42.2405 46.0488 42.1057 45.9902C41.8772 45.8847 41.6311 45.8788 37.4827 45.8788H33.1057L33.1174 44.2851L33.135 42.6855H42.6272H52.1194L52.4475 42.5214C52.8342 42.3339 53.2209 41.9413 53.3967 41.5546L53.5256 41.2792V27.9199V14.5605L53.3967 14.2851C53.2092 13.8749 52.8459 13.5175 52.4241 13.3242L52.0608 13.1542L30.0881 13.1425C12.6916 13.1308 8.06274 13.1484 7.8518 13.2011ZM51.2698 27.9199V40.371H30.0002H8.73071V27.9199V15.4687H30.0002H51.2698V27.9199Z" fill="black"/>
</svg>
