<svg width="60" height="60" viewBox="0 0 60 60" fill="none" xmlns="http://www.w3.org/2000/svg">
<path d="M11.5726 8.22656C11.4437 8.30273 11.2855 8.45508 11.221 8.56641C11.1038 8.75977 11.1038 8.87695 11.0863 29.7949C11.0745 44.2617 11.0863 50.8945 11.1331 51.041C11.2152 51.3398 11.4085 51.5566 11.6839 51.6855C11.9183 51.791 12.5277 51.7969 29.9417 51.7969C41.7249 51.7969 48.0296 51.7734 48.1702 51.7383C48.4925 51.6504 48.7913 51.3105 48.8675 50.9531C48.9144 50.7363 48.9261 44.8008 48.9144 29.7656C48.8968 9.41602 48.8968 8.87109 48.7855 8.6543C48.7269 8.53125 48.5804 8.36133 48.4691 8.27344L48.264 8.11523L30.0355 8.10352L11.807 8.08594L11.5726 8.22656ZM46.9925 13.5938V17.2266H29.971H12.9495V13.5938V9.96094H29.971H46.9925V13.5938ZM43.7288 19.2012L46.9925 19.2363V34.5527V49.8633H29.971H12.9495V34.5527C12.9495 26.127 12.9671 19.2188 12.9906 19.2012C13.0374 19.1484 39.4749 19.1484 43.7288 19.2012Z" fill="black"/>
<path d="M15.9031 12.3223C15.2352 12.6445 14.9188 13.5293 15.2293 14.2148C15.4344 14.6602 16.0613 15.0586 16.5594 15.0586C17.0984 15.0586 17.7664 14.5898 17.9305 14.0977C18.1297 13.4824 17.866 12.7324 17.3211 12.3926C16.9168 12.1465 16.3367 12.1172 15.9031 12.3223Z" fill="black"/>
<path d="M20.6433 12.3105C19.946 12.6503 19.6238 13.5351 19.9577 14.2031C20.2214 14.7187 20.7019 15.0175 21.2702 15.0234C22.1081 15.0293 22.6999 14.4375 22.6999 13.5937C22.6999 13.0078 22.3659 12.498 21.8445 12.2812C21.5339 12.1464 20.948 12.164 20.6433 12.3105Z" fill="black"/>
<path d="M34.0371 12.3222C33.9258 12.3926 33.7793 12.5683 33.709 12.7148C33.5918 12.9375 33.5742 13.0664 33.5742 13.6465C33.5742 14.4375 33.6797 14.7304 34.0312 14.9531L34.248 15.0879L39.0996 15.1054C42.2988 15.1172 44.0273 15.0996 44.1797 15.0586C44.3145 15.0234 44.4844 14.9062 44.6133 14.7656L44.8242 14.5312V13.6758C44.8242 12.7148 44.7832 12.5742 44.4316 12.334L44.209 12.1875H39.2227H34.2363L34.0371 12.3222Z" fill="black"/>
<path d="M28.3301 21.5332C26.4668 21.7969 24.4336 22.5586 22.9688 23.543C20.1973 25.3946 18.4395 28.0782 17.7598 31.4942C17.584 32.379 17.5195 33.1348 17.5137 34.2715C17.5137 35.4668 17.6133 36.2403 17.9004 37.2891C18.5391 39.6036 20.0332 41.877 21.9902 43.4942C24.2871 45.3985 26.6836 46.2891 29.7949 46.3887C31.7637 46.4473 33.4277 46.084 35.4023 45.1582C37.4121 44.2207 39.2285 42.6563 40.4883 40.7813C41.3379 39.5157 42.0645 37.6348 42.3691 35.918C42.6035 34.5879 42.5801 32.7012 42.3047 31.3946C42.082 30.3165 41.6309 28.9981 41.1738 28.0899C40.9102 27.5684 40.2539 26.5782 39.7969 26.0098C37.9922 23.7715 35.0508 22.1309 31.875 21.5918C31.0898 21.4571 29.0918 21.4219 28.3301 21.5332ZM31.3184 23.4727C32.7188 23.6661 34.3418 24.1934 35.4492 24.8145C36.8848 25.6231 37.9512 26.6485 38.9766 28.2129C39.6328 29.209 39.9492 29.9063 40.2832 31.0782C40.4766 31.7579 40.4707 31.8165 40.2598 31.8165C39.9785 31.8165 38.9707 32.0977 38.5605 32.2852C38.3496 32.3848 37.8223 32.6719 37.3828 32.9239C35.9883 33.7325 35.4199 33.9668 34.4238 34.1426C33.791 34.2481 32.6777 34.2188 32.1387 34.0723C31.7109 33.9551 30.6504 33.4571 29.6191 32.8946C27.791 31.8868 26.4902 31.5235 25.002 31.5997C23.4785 31.6758 22.4062 32.0918 20.4375 33.3575C19.8984 33.7032 19.4414 33.9844 19.4238 33.9844C19.3652 33.9844 19.3945 33.1524 19.4883 32.5079C19.6699 31.1836 19.9453 30.3399 20.6895 28.8868C21.7734 26.7481 23.2559 25.336 25.4297 24.3692C27.5039 23.4434 29.2031 23.1856 31.3184 23.4727ZM26.0508 33.5215C26.9297 33.6446 27.2109 33.7618 29.8359 35.1153C30.5098 35.461 31.2363 35.7422 31.9336 35.9297C32.5605 36.0938 33.9316 36.1348 34.7344 36.0118C35.8066 35.8477 36.3926 35.6016 38.9766 34.2247C39.6035 33.8907 40.043 33.7149 40.4355 33.6563L40.6816 33.6153L40.6406 34.4239C40.5938 35.3555 40.459 36.1114 40.1953 36.9434C39.6621 38.5899 38.8535 40.0196 37.8281 41.1211C37.1484 41.8536 35.7539 42.9082 34.8926 43.3418C34.2949 43.6465 33.3164 44.004 32.6191 44.1739C30.7324 44.6309 29.1914 44.6426 27.5098 44.209C25.4355 43.6758 23.9004 42.7911 22.5117 41.3379C21.3164 40.084 20.6484 39.0938 20.1621 37.8633C19.8633 37.0957 19.541 36.1055 19.5762 36.0704C19.5879 36.0645 19.7578 35.9649 19.9512 35.8594C20.1445 35.7481 20.7363 35.3731 21.2695 35.0157C22.3652 34.295 23.0508 33.9434 23.8184 33.7207C24.7148 33.4688 25.2891 33.4161 26.0508 33.5215Z" fill="black"/>
</svg>
