<svg width="60" height="60" viewBox="0 0 60 60" fill="none" xmlns="http://www.w3.org/2000/svg">
<path d="M28.2891 12.5449C24.2871 12.75 19.8691 13.916 16.2891 15.7089C13.4355 17.1386 11.4082 18.5859 9.00586 20.9179C7.96875 21.9199 7.82812 22.1367 7.82812 22.705C7.83398 23.5078 8.44336 24.1054 9.25781 24.1054C9.76758 24.1054 9.91406 24.0234 10.6934 23.2675C13.0898 20.9648 15.2227 19.4472 17.8418 18.1933C21.5566 16.4121 25.2422 15.5273 29.3848 15.4277C36.8086 15.2519 43.8516 17.9824 49.1191 23.0859C49.5762 23.5254 50.0391 23.9355 50.1387 23.9882C50.4199 24.1289 50.8184 24.1699 51.123 24.082C51.4805 23.9824 51.9316 23.5722 52.0664 23.2324C52.1953 22.8867 52.1543 22.2949 51.9844 22.0195C51.8086 21.7382 50.0098 19.9863 49.2188 19.33C47.3379 17.7656 45.6504 16.6816 43.3887 15.58C38.6953 13.3007 33.5625 12.2695 28.2891 12.5449Z" fill="black"/>
<path d="M28.3883 19.8984C28.2946 19.9102 27.9254 19.9512 27.568 19.9863C26.1325 20.127 24.2633 20.5254 22.8512 20.9941C20.6364 21.7266 18.2868 22.9512 16.4411 24.3398C15.6618 24.9258 14.3493 26.0859 13.6754 26.7832C13.1071 27.375 12.984 27.6445 13.0192 28.207C13.0368 28.5176 13.0778 28.6406 13.2184 28.8398C13.4762 29.209 13.8747 29.4316 14.3258 29.4609C14.9235 29.502 15.0407 29.4316 16.0192 28.4941C17.484 27.0879 18.7555 26.1211 20.2907 25.2539C24.9957 22.5996 30.9547 22.002 36.1286 23.6777C37.0954 23.9883 38.7536 24.668 39.4333 25.0313C40.1774 25.4238 41.484 26.3027 42.2692 26.9297C42.6208 27.2109 43.3239 27.8496 43.8395 28.3477C44.859 29.332 45.0934 29.4785 45.609 29.4785C46.4 29.4785 47.0036 28.8691 47.0036 28.0605C47.0036 27.5215 46.8688 27.3105 45.8317 26.3027C44.0211 24.5215 42.4567 23.3906 40.2829 22.2949C37.7575 21.0117 35.1793 20.2559 32.2907 19.9512C31.5348 19.875 28.9333 19.8398 28.3883 19.8984Z" fill="black"/>
<path d="M28.711 27.2227C26.4082 27.4863 24.7852 27.9434 23.0508 28.8105C21.4747 29.6016 20.3379 30.4219 18.9375 31.7871C18.211 32.4902 18.0879 32.7012 18.0821 33.2227C18.0762 34.0254 18.6739 34.6289 19.4825 34.6289C19.6641 34.6289 19.8985 34.5879 20.0098 34.5469C20.1211 34.5 20.5547 34.1426 20.9707 33.7617C22.4239 32.4141 23.543 31.6875 25.1485 31.0488C26.6895 30.4336 28.2305 30.1582 30.0879 30.1523C32.2618 30.1523 33.9786 30.5273 35.7715 31.4004C36.9844 31.998 37.8985 32.6543 39.0528 33.7734C39.8204 34.5176 40.002 34.6289 40.4883 34.6289C41.2793 34.6289 41.8887 34.0312 41.8946 33.252C41.8946 32.7422 41.7129 32.4609 40.8047 31.582C38.7247 29.5664 36.4747 28.3066 33.75 27.6328C32.4258 27.3105 31.834 27.2344 30.293 27.2168C29.5372 27.2051 28.8223 27.2109 28.711 27.2227Z" fill="black"/>
<path d="M28.4001 34.6348C27.2282 34.8398 26.0974 35.291 25.0954 35.9531C24.4568 36.375 23.4314 37.3594 23.2673 37.7051C23.1208 38.0156 23.1032 38.5723 23.2263 38.8711C23.4431 39.3926 23.9821 39.7441 24.5505 39.7441C25.0134 39.7441 25.2536 39.6152 25.8279 39.0645C26.5837 38.3438 27.0056 38.0801 27.9548 37.7461C29.3962 37.2363 31.0017 37.2949 32.4782 37.9102C33.0818 38.1621 33.5095 38.4492 34.1657 39.0352C34.8454 39.6504 35.0154 39.7383 35.4782 39.7383C35.8943 39.7383 36.1989 39.6094 36.4802 39.3047C36.779 38.9883 36.8786 38.7422 36.8845 38.3203C36.8845 37.7754 36.6794 37.4355 35.9529 36.7852C34.6696 35.625 33.2048 34.9219 31.4821 34.6289C30.5915 34.4766 29.2849 34.4766 28.4001 34.6348Z" fill="black"/>
<path d="M29.4904 41.25C28.7815 41.3789 28.0315 41.7891 27.5979 42.293C27.2639 42.6797 26.9182 43.418 26.8361 43.9277C26.6252 45.2344 27.3752 46.6055 28.6233 47.1973C29.5783 47.6484 30.5334 47.625 31.4885 47.1211C33.299 46.1719 33.7209 43.7813 32.344 42.2813C31.594 41.4727 30.4983 41.0742 29.4904 41.25Z" fill="black"/>
</svg>
